<?xml version="1.0" encoding="UTF-8" standalone="no"?>
<!DOCTYPE svg PUBLIC "-//W3C//DTD SVG 1.1//EN" "http://www.w3.org/Graphics/SVG/1.1/DTD/svg11.dtd">
<svg width="100%" height="100%" viewBox="0 0 2864 2000" version="1.1" xmlns="http://www.w3.org/2000/svg" xmlns:xlink="http://www.w3.org/1999/xlink" xml:space="preserve" xmlns:serif="http://www.serif.com/" style="fill-rule:evenodd;clip-rule:evenodd;stroke-linejoin:round;stroke-miterlimit:2;">
    <g>
        <rect x="0" y="0" width="2864" height="2000" style="fill:rgb(232,244,247);fill-rule:nonzero;"/>
        <path d="M110.603,289.633L905.674,289.633C905.674,289.633 820.094,271.141 792.487,203.337C764.88,135.532 665.496,89.303 618.565,175.599C571.634,261.896 508.139,203.337 436.361,154.024C364.584,104.712 110.603,289.633 110.603,289.633Z" style="fill:rgb(216,227,230);fill-rule:nonzero;"/>
        <path d="M583.504,291.776L1718.58,291.776C1718.58,291.776 1596.4,269.71 1556.99,188.802C1517.58,107.892 1375.69,52.727 1308.69,155.701C1241.69,258.678 1151.04,188.802 1048.57,129.958C946.099,71.115 583.504,291.776 583.504,291.776Z" style="fill:rgb(216,227,230);fill-rule:nonzero;"/>
        <path d="M1812.06,458.034L0,421.847L0,204.499L1096.37,303.979L771.046,351.715L1812.06,458.034Z" style="fill:white;fill-rule:nonzero;"/>
        <path d="M1165.77,655.488L1668.93,390.771L1838.09,434.174L2146.06,303.968L2410.66,547.019L2588.5,512.297L2864,895.952L1480.24,959.268L1000.94,999.981L1165.77,655.488Z" style="fill:rgb(168,204,204);fill-rule:nonzero;"/>
        <path d="M2146.06,303.968L2072.78,455.874L2199.2,455.874L2017.02,612.121L1987.74,494.936L1838.09,434.174L2146.06,303.968Z" style="fill:rgb(234,228,225);fill-rule:nonzero;"/>
        <path d="M1668.93,390.771L1610.37,553.529L1685.2,553.529L1707.97,612.121L1659.17,576.314L1553.23,586.08L1382.65,625.143L1398.91,677.225L1255.77,733.186L1165.77,655.488L1668.93,390.771Z" style="fill:rgb(234,228,225);fill-rule:nonzero;"/>
        <path d="M2588.5,512.297L2566.81,590.42L2436.68,733.186L2484.4,622.741L2343.22,622.741L2410.66,547.019L2588.5,512.297Z" style="fill:rgb(234,228,225);fill-rule:nonzero;"/>
        <path d="M1959.55,902.926L779.73,936.844L779.702,936.844L435.472,946.737L223.212,952.849L53.393,957.727L0,959.268L0,411.861L332.941,351.708L627.896,533.989L983.586,533.989L1432,716.299L1959.55,902.926Z" style="fill:rgb(98,165,179);fill-rule:nonzero;"/>
        <path d="M1763.61,971.498C1763.61,971.498 1470.83,962.455 1428.53,864.801C1386.24,767.146 1161.77,767.146 1070.68,828.994C979.593,890.842 787.654,936.414 787.654,936.414C787.654,936.414 1600.95,1133.53 1763.61,971.498Z" style="fill:rgb(65,109,117);fill-rule:nonzero;"/>
        <path d="M779.73,936.844L779.702,936.844C776.705,937.768 469.312,961.174 342.914,970.76C310.166,973.227 289.576,974.797 289.576,974.797L223.212,952.849L0,879.045L0,664.304C79.502,630.33 206.88,586.603 292.826,677.225C413.2,804.175 497.773,778.135 624.647,784.638C674.063,787.16 708.353,810.707 731.827,838.513C739.53,847.622 746.058,857.152 751.604,866.57C772.615,902.422 779.227,936.451 779.73,936.844Z" style="fill:rgb(232,244,247);fill-rule:nonzero;"/>
        <path d="M2864,399.254L2864,556.869L2101.08,549.273L2466.07,450.605L1812.34,382.8L2864,399.254Z" style="fill:white;fill-rule:nonzero;"/>
        <path d="M575.203,573.85C559.18,610.036 337.815,532.7 264.756,526.926C188.56,520.899 53.001,492.617 67.316,460.971C68.464,458.363 70.622,455.757 73.899,453.15C117.265,418.42 288.596,470.501 349.329,465.96C410.063,461.419 570.553,554.004 570.553,554.004C575.96,562.749 577.276,569.224 575.203,573.85Z" style="fill:rgb(232,244,247);fill-rule:nonzero;"/>
        <path d="M787.658,873.98C787.658,873.98 774.353,860.881 751.604,866.57C690.059,882.016 559.319,914.867 435.472,946.737C403.731,954.923 372.469,963.023 342.914,970.76C237.976,998.229 154.915,1020.93 151.217,1025.03C146.819,1029.85 100.148,999.323 53.393,957.727C34.708,941.16 16.023,922.8 0,904.216L0,771.8C89.111,746.825 263.888,817.014 427.291,802.577C549.15,791.814 665.743,818.639 731.827,838.513C766.816,849.023 787.658,873.98 787.658,873.98Z" style="fill:rgb(192,217,224);fill-rule:nonzero;"/>
        <path d="M575.203,573.85C559.18,610.036 337.815,532.7 264.756,526.926C188.56,520.899 53.001,492.617 67.316,460.971C156.483,452.813 392.218,550.668 488.025,558.908C525.927,562.188 555.146,567.43 575.203,573.85Z" style="fill:rgb(206,233,240);fill-rule:nonzero;"/>
        <path d="M1000.94,959.268C1106.06,892.754 1102.86,806.736 1229.74,823.359C1356.62,839.981 1402.16,862.941 1480.24,859.6C1558.32,856.258 1165.77,1035.42 1165.77,1035.42L1000.94,959.268Z" style="fill:rgb(48,81,87);fill-rule:nonzero;"/>
        <path d="M2864,758.178L2864,1166.24L1299.9,910.873L2198.12,655.502L2640.56,772.697L2864,758.178Z" style="fill:rgb(222,238,242);fill-rule:nonzero;"/>
        <path d="M2251.35,1060.01L2229.68,1058.1L2220.7,1057.33L2220.45,1061.66L2219.81,1073.37L2219.46,1079.75L2210.35,1079.09L2210.7,1072.67L2211.31,1061.66L2211.59,1056.52L2200.69,1055.57C2199.35,1044.52 2197.95,1033.33 2196.64,1022.06L2204.82,1005.44L2198.3,1004.85L2210.44,980.228L2205.23,979.75L2209.52,971.053L2223.45,942.795L2228.69,958.648L2236.59,982.503L2231.25,982.025L2236.94,999.237L2240.01,1008.49L2234.16,1007.97L2234.13,1008.01L2251.35,1060.01Z" style="fill:rgb(79,133,144);fill-rule:nonzero;"/>
        <path d="M2352.47,1089.86L2344.41,1089.27L2349.32,1000.39L2357.38,1000.98L2352.47,1089.86Z" style="fill:rgb(79,133,144);fill-rule:nonzero;"/>
        <path d="M2378.31,1046.84L2382.75,1047.16L2367.93,972.339L2372.02,972.637L2358.63,905.045L2337.91,970.152L2342,970.449L2319.06,1042.52L2323.5,1042.84L2318.11,1059.8L2323.16,1060.17L2319.14,1072.81L2349.24,1075L2379.34,1077.2L2376.74,1064.07L2381.8,1064.44L2378.31,1046.84Z" style="fill:rgb(79,133,144);fill-rule:nonzero;"/>
        <path d="M2267.9,1083.45L2258.27,1082.72L2264.35,976.569L2273.98,977.295L2267.9,1083.45Z" style="fill:rgb(79,133,144);fill-rule:nonzero;"/>
        <path d="M2298.88,1032.14L2304.18,1032.54L2286.65,943.112L2291.53,943.48L2275.69,862.697L2250.79,940.408L2255.67,940.776L2228.11,1026.8L2233.41,1027.2L2226.93,1047.44L2232.97,1047.9L2228.13,1062.98L2264.08,1065.7L2300.04,1068.41L2296.96,1052.72L2303,1053.18L2298.88,1032.14Z" style="fill:rgb(79,133,144);fill-rule:nonzero;"/>
        <path d="M2312.64,1087.21L2305.73,1086.69L2310.09,1010.49L2317,1011.01L2312.64,1087.21Z" style="fill:rgb(79,133,144);fill-rule:nonzero;"/>
        <path d="M2338.54,1053.16L2327.76,998.139L2331.84,998.447L2318.23,928.988L2296.81,995.805L2300.89,996.112L2283.93,1049.04L2288.01,1049.35L2283.02,1064.91L2310.33,1066.97L2337.64,1069.04L2334.46,1052.85L2338.54,1053.16Z" style="fill:rgb(79,133,144);fill-rule:nonzero;"/>
        <path d="M2412.29,1094.06L2403.07,1093.36L2408.88,991.796L2418.09,992.49L2412.29,1094.06Z" style="fill:rgb(79,133,144);fill-rule:nonzero;"/>
        <path d="M2446.52,1053.6L2434.07,990.069L2437.63,990.338L2419.02,895.422L2389.76,986.728L2393.32,986.996L2373.74,1048.12L2389.7,1049.32L2385.42,1062.69L2409.35,1064.49L2433.28,1066.3L2430.56,1052.4L2446.52,1053.6Z" style="fill:rgb(79,133,144);fill-rule:nonzero;"/>
        <path d="M2449.15,1095.65L2443.02,1095.22L2446.59,1027.65L2452.72,1028.08L2449.15,1095.65Z" style="fill:rgb(79,133,144);fill-rule:nonzero;"/>
        <path d="M2483.73,1035.07L2455.03,926.334L2415.08,1030.28L2427.16,1031.12L2413.1,1067.7L2447.43,1070.1L2481.75,1072.49L2471.65,1034.22L2483.73,1035.07Z" style="fill:rgb(79,133,144);fill-rule:nonzero;"/>
        <path d="M2582.16,1089.28L2564.4,1046.74L2570.29,1047.24L2561.25,1025.58L2566.59,1026.04L2553.03,993.57L2535.23,1023.37L2540.44,1023.81L2528.57,1043.69L2535.11,1044.25L2511.78,1083.29L2542.42,1085.9L2541.39,1104.23L2550.5,1104.91L2551.52,1086.67L2582.16,1089.28Z" style="fill:rgb(79,133,144);fill-rule:nonzero;"/>
        <path d="M2504.77,1095.47C2504.77,1095.47 2506.94,1085.49 2490.34,1085.63C2489.87,1085.63 2489.43,1085.64 2489,1085.66L2489.23,1082.01L2528.07,1085.08L2508.17,1048.69L2520.93,1049.7L2511.81,1033.03L2521.91,1033.83L2499.59,993.026L2508.37,993.721L2491.31,962.533L2470.61,990.736L2479.4,991.43L2452.32,1028.33L2462.41,1029.12L2451.35,1044.2L2464.11,1045.21L2439.97,1078.12L2480.99,1081.36L2480.63,1087.28C2475.06,1089.49 2474.59,1092.35 2462.88,1085.15C2446.64,1075.16 2440.91,1084.14 2440.91,1084.14C2440.91,1084.14 2432.61,1077.57 2426.72,1083.95C2424.64,1086.21 2421.36,1086.9 2417.97,1087.29L2418.66,1076.03C2419.68,1075.99 2420.73,1075.88 2421.84,1075.69C2443.05,1072.03 2430.81,1053.86 2430.65,1046.13C2430.48,1038.41 2443.9,1037.39 2441.68,1021.79C2439.45,1006.19 2429.09,1009.23 2430.34,999.238C2431.59,989.252 2429.58,977.57 2418.71,981.411C2412.53,983.593 2411.61,988.266 2404.79,1001.08C2397.96,1013.88 2410.68,1019.04 2403.23,1036.85C2396.8,1052.21 2399.53,1072.71 2414.03,1075.69L2413.29,1087.74C2408.83,1088.23 2405.08,1089.21 2404.79,1093.83L2512.99,1102.38C2512.99,1102.38 2513.88,1096.43 2504.77,1095.47Z" style="fill:rgb(79,133,144);fill-rule:nonzero;"/>
        <path d="M2683.53,1114.99L2675.47,1114.4L2679.42,1042.19L2687.48,1042.78L2683.53,1114.99Z" style="fill:rgb(79,133,144);fill-rule:nonzero;"/>
        <path d="M2708.89,1080.37L2713.34,1080.7L2697.72,1019.64L2701.81,1019.94L2687.71,964.779L2667.7,1017.43L2671.79,1017.73L2649.64,1076.02L2654.08,1076.35L2648.87,1090.06L2653.93,1090.43L2650.05,1100.66L2680.15,1102.87L2710.25,1105.07L2707.51,1094.37L2712.57,1094.74L2708.89,1080.37Z" style="fill:rgb(79,133,144);fill-rule:nonzero;"/>
        <path d="M2598.97,1108.58L2589.34,1107.86L2594.26,1021.61L2603.89,1022.34L2598.97,1108.58Z" style="fill:rgb(79,133,144);fill-rule:nonzero;"/>
        <path d="M2629.37,1067.29L2634.67,1067.69L2616.19,994.719L2621.07,995.087L2604.38,929.167L2580.33,992.013L2585.21,992.381L2558.59,1061.95L2563.9,1062.35L2557.64,1078.72L2563.68,1079.18L2559.01,1091.38L2594.96,1094.09L2630.91,1096.8L2627.67,1084.01L2633.71,1084.46L2629.37,1067.29Z" style="fill:rgb(79,133,144);fill-rule:nonzero;"/>
        <path d="M2643.71,1112.28L2636.8,1111.75L2640.34,1049.85L2647.25,1050.37L2643.71,1112.28Z" style="fill:rgb(79,133,144);fill-rule:nonzero;"/>
        <path d="M2669.22,1084.95L2657.86,1040.05L2661.94,1040.36L2647.59,983.68L2626.91,1037.71L2630.99,1038.02L2614.61,1080.83L2618.69,1081.13L2613.88,1093.72L2641.18,1095.79L2668.49,1097.85L2665.14,1084.64L2669.22,1084.95Z" style="fill:rgb(79,133,144);fill-rule:nonzero;"/>
        <path d="M2743.34,1119.25L2734.13,1118.56L2738.85,1036.04L2748.06,1036.73L2743.34,1119.25Z" style="fill:rgb(79,133,144);fill-rule:nonzero;"/>
        <path d="M2777.12,1086.84L2764,1034.99L2767.55,1035.26L2747.94,957.807L2719.69,1031.65L2723.25,1031.92L2704.33,1081.34L2720.3,1082.55L2716.16,1093.36L2740.09,1095.17L2764.03,1096.97L2761.16,1085.63L2777.12,1086.84Z" style="fill:rgb(79,133,144);fill-rule:nonzero;"/>
        <path d="M2780.2,1121.07L2774.07,1120.63L2776.91,1065.73L2783.04,1066.17L2780.2,1121.07Z" style="fill:rgb(79,133,144);fill-rule:nonzero;"/>
        <path d="M2814.1,1072.29L2784.25,983.455L2745.45,1067.42L2757.53,1068.28L2743.87,1097.83L2778.2,1100.26L2812.53,1102.69L2802.02,1071.43L2814.1,1072.29Z" style="fill:rgb(79,133,144);fill-rule:nonzero;"/>
        <path d="M2052.39,1034.64L2030.72,1032.98L2021.74,1032.3L2021.48,1036.08L2020.84,1046.28L2020.49,1051.84L2011.38,1051.27L2011.73,1045.67L2012.34,1036.08L2012.63,1031.6L2001.73,1030.77C2000.39,1021.14 1998.98,1011.39 1997.67,1001.57L2005.85,987.085L1999.33,986.573L2011.48,965.114L2006.27,964.699L2010.55,957.119L2024.49,932.495L2029.73,946.311L2037.62,967.098L2032.28,966.682L2037.97,981.68L2041.04,989.739L2035.19,989.291L2035.16,989.323L2052.39,1034.64Z" style="fill:rgb(79,133,144);fill-rule:nonzero;"/>
        <path d="M2153.5,1060.65L2145.44,1060.14L2150.35,982.688L2158.41,983.199L2153.5,1060.65Z" style="fill:rgb(79,133,144);fill-rule:nonzero;"/>
        <path d="M2179.35,1023.16L2183.79,1023.44L2168.97,958.24L2173.05,958.5L2159.67,899.6L2138.95,956.335L2143.03,956.594L2120.1,1019.4L2124.54,1019.68L2119.14,1034.46L2124.2,1034.78L2120.17,1045.79L2150.28,1047.7L2180.38,1049.61L2177.78,1038.18L2182.84,1038.5L2179.35,1023.16Z" style="fill:rgb(79,133,144);fill-rule:nonzero;"/>
        <path d="M2068.94,1055.06L2059.31,1054.43L2065.38,961.927L2075.01,962.559L2068.94,1055.06Z" style="fill:rgb(79,133,144);fill-rule:nonzero;"/>
        <path d="M2099.91,1010.35L2105.22,1010.7L2087.69,932.771L2092.57,933.093L2076.73,862.697L2051.83,930.416L2056.71,930.736L2029.14,1005.7L2034.45,1006.05L2027.96,1023.69L2034,1024.08L2029.17,1037.23L2065.12,1039.59L2101.07,1041.95L2098,1028.29L2104.04,1028.68L2099.91,1010.35Z" style="fill:rgb(79,133,144);fill-rule:nonzero;"/>
        <path d="M2113.68,1058.34L2106.77,1057.89L2111.13,991.485L2118.04,991.939L2113.68,1058.34Z" style="fill:rgb(79,133,144);fill-rule:nonzero;"/>
        <path d="M2139.58,1028.67L2128.79,980.723L2132.88,980.991L2119.26,920.464L2097.85,978.688L2101.93,978.957L2084.97,1025.08L2089.05,1025.35L2084.06,1038.91L2111.37,1040.71L2138.67,1042.5L2135.5,1028.4L2139.58,1028.67Z" style="fill:rgb(79,133,144);fill-rule:nonzero;"/>
        <path d="M2213.32,1064.31L2204.11,1063.7L2209.92,975.195L2219.13,975.801L2213.32,1064.31Z" style="fill:rgb(79,133,144);fill-rule:nonzero;"/>
        <path d="M2247.56,1029.06L2235.1,973.69L2238.66,973.924L2220.06,891.215L2190.8,970.778L2194.36,971.013L2174.77,1024.27L2190.74,1025.32L2186.45,1036.97L2210.39,1038.55L2234.32,1040.12L2231.59,1028.01L2247.56,1029.06Z" style="fill:rgb(79,133,144);fill-rule:nonzero;"/>
        <path d="M2250.19,1065.69L2244.06,1065.32L2247.63,1006.44L2253.76,1006.81L2250.19,1065.69Z" style="fill:rgb(79,133,144);fill-rule:nonzero;"/>
        <path d="M2284.77,1012.9L2256.06,918.151L2216.11,1008.73L2228.19,1009.46L2214.13,1041.34L2248.46,1043.43L2282.79,1045.51L2272.69,1012.17L2284.77,1012.9Z" style="fill:rgb(79,133,144);fill-rule:nonzero;"/>
        <path d="M2383.2,1060.14L2365.43,1023.07L2371.33,1023.51L2362.28,1004.64L2367.62,1005.03L2354.07,976.741L2336.26,1002.71L2341.48,1003.1L2329.6,1020.42L2336.14,1020.9L2312.82,1054.93L2343.46,1057.2L2342.43,1073.17L2351.54,1073.76L2352.56,1057.87L2383.2,1060.14Z" style="fill:rgb(79,133,144);fill-rule:nonzero;"/>
        <path d="M2305.81,1065.54C2305.81,1065.54 2307.98,1056.84 2291.37,1056.96C2290.91,1056.96 2290.47,1056.98 2290.04,1056.99L2290.26,1053.81L2329.11,1056.48L2309.2,1024.78L2321.97,1025.66L2312.85,1011.13L2322.94,1011.82L2300.62,976.268L2309.41,976.873L2292.35,949.695L2271.65,974.271L2280.43,974.877L2253.36,1007.03L2263.45,1007.72L2252.38,1020.86L2265.15,1021.74L2241,1050.42L2282.02,1053.24L2281.66,1058.4C2276.1,1060.33 2275.62,1062.82 2263.92,1056.54C2247.68,1047.84 2241.94,1055.66 2241.94,1055.66C2241.94,1055.66 2233.65,1049.94 2227.75,1055.5C2225.67,1057.46 2222.4,1058.07 2219,1058.41L2219.69,1048.6C2220.71,1048.57 2221.77,1048.47 2222.87,1048.3C2244.09,1045.11 2231.84,1029.28 2231.68,1022.54C2231.52,1015.81 2244.94,1014.93 2242.71,1001.33C2240.49,987.737 2230.13,990.385 2231.37,981.682C2232.62,972.979 2230.62,962.8 2219.75,966.146C2213.57,968.047 2212.65,972.119 2205.82,983.281C2198.99,994.443 2211.72,998.938 2204.27,1014.45C2197.84,1027.84 2200.57,1045.7 2215.06,1048.3L2214.32,1058.81C2209.86,1059.23 2206.11,1060.08 2205.83,1064.11L2314.03,1071.56C2314.03,1071.56 2314.91,1066.37 2305.81,1065.54Z" style="fill:rgb(79,133,144);fill-rule:nonzero;"/>
        <path d="M2484.57,1082.55L2476.5,1082.03L2480.46,1019.11L2488.52,1019.63L2484.57,1082.55Z" style="fill:rgb(79,133,144);fill-rule:nonzero;"/>
        <path d="M2509.93,1052.38L2514.37,1052.66L2498.76,999.457L2502.84,999.718L2488.74,951.652L2468.74,997.537L2472.82,997.798L2450.68,1048.59L2455.12,1048.88L2449.91,1060.83L2454.97,1061.15L2451.08,1070.06L2481.18,1071.98L2511.28,1073.91L2508.55,1064.58L2513.6,1064.9L2509.93,1052.38Z" style="fill:rgb(79,133,144);fill-rule:nonzero;"/>
        <path d="M2400,1076.97L2390.37,1076.33L2395.3,1001.18L2404.93,1001.81L2400,1076.97Z" style="fill:rgb(79,133,144);fill-rule:nonzero;"/>
        <path d="M2430.4,1040.98L2435.71,1041.33L2417.23,977.743L2422.11,978.063L2405.42,920.62L2381.37,975.385L2386.25,975.706L2359.63,1036.33L2364.93,1036.68L2358.67,1050.94L2364.71,1051.34L2360.04,1061.97L2396,1064.34L2431.95,1066.7L2428.71,1055.55L2434.75,1055.95L2430.4,1040.98Z" style="fill:rgb(79,133,144);fill-rule:nonzero;"/>
        <path d="M2444.75,1080.18L2437.83,1079.73L2441.37,1025.78L2448.29,1026.24L2444.75,1080.18Z" style="fill:rgb(79,133,144);fill-rule:nonzero;"/>
        <path d="M2470.26,1056.37L2458.89,1017.25L2462.98,1017.51L2448.63,968.123L2427.95,1015.21L2432.03,1015.48L2415.65,1052.78L2419.73,1053.05L2414.91,1064.02L2442.22,1065.81L2469.52,1067.61L2466.18,1056.1L2470.26,1056.37Z" style="fill:rgb(79,133,144);fill-rule:nonzero;"/>
        <path d="M2544.38,1086.26L2535.17,1085.66L2539.88,1013.75L2549.1,1014.36L2544.38,1086.26Z" style="fill:rgb(79,133,144);fill-rule:nonzero;"/>
        <path d="M2578.16,1058.02L2565.03,1012.84L2568.59,1013.07L2548.98,945.576L2520.72,1009.92L2524.28,1010.16L2505.37,1053.23L2521.33,1054.28L2517.2,1063.7L2541.13,1065.28L2565.06,1066.85L2562.19,1056.97L2578.16,1058.02Z" style="fill:rgb(79,133,144);fill-rule:nonzero;"/>
        <path d="M2581.23,1087.84L2575.1,1087.47L2577.95,1039.62L2584.08,1040L2581.23,1087.84Z" style="fill:rgb(79,133,144);fill-rule:nonzero;"/>
        <path d="M2615.14,1045.34L2585.29,967.927L2546.49,1041.1L2558.57,1041.84L2544.91,1067.6L2579.24,1069.71L2613.56,1071.83L2603.06,1044.59L2615.14,1045.34Z" style="fill:rgb(79,133,144);fill-rule:nonzero;"/>
        <path d="M1681.74,1014.29L1660.07,1012.16L1651.09,1011.3L1650.84,1016.14L1650.2,1029.21L1649.85,1036.34L1640.74,1035.61L1641.09,1028.43L1641.7,1016.14L1641.98,1010.4L1631.08,1009.34C1629.74,997.002 1628.34,984.503 1627.03,971.922L1635.21,953.358L1628.69,952.702L1640.83,925.205L1635.62,924.672L1639.91,914.96L1653.84,883.405L1659.08,901.108L1666.98,927.745L1661.64,927.213L1667.33,946.433L1670.4,956.76L1664.55,956.186L1664.52,956.227L1681.74,1014.29Z" style="fill:rgb(232,244,247);fill-rule:nonzero;"/>
        <path d="M1782.86,1047.62L1774.8,1046.97L1779.71,947.724L1787.77,948.379L1782.86,1047.62Z" style="fill:rgb(232,244,247);fill-rule:nonzero;"/>
        <path d="M1808.7,999.583L1813.15,999.944L1798.32,916.396L1802.41,916.729L1789.02,841.252L1768.3,913.954L1772.39,914.286L1749.45,994.765L1753.89,995.126L1748.5,1014.06L1753.55,1014.47L1749.53,1028.59L1779.63,1031.04L1809.73,1033.49L1807.13,1018.83L1812.19,1019.24L1808.7,999.583Z" style="fill:rgb(232,244,247);fill-rule:nonzero;"/>
        <path d="M1698.29,1040.47L1688.67,1039.66L1694.74,921.119L1704.37,921.93L1698.29,1040.47Z" style="fill:rgb(232,244,247);fill-rule:nonzero;"/>
        <path d="M1729.27,983.168L1734.57,983.615L1717.04,883.76L1721.92,884.171L1706.08,793.965L1681.18,880.74L1686.06,881.151L1658.5,977.209L1663.8,977.656L1657.32,1000.26L1663.36,1000.77L1658.52,1017.62L1694.47,1020.64L1730.43,1023.67L1727.35,1006.16L1733.39,1006.66L1729.27,983.168Z" style="fill:rgb(232,244,247);fill-rule:nonzero;"/>
        <path d="M1743.03,1044.67L1736.12,1044.09L1740.48,958.996L1747.39,959.579L1743.03,1044.67Z" style="fill:rgb(232,244,247);fill-rule:nonzero;"/>
        <path d="M1768.93,1006.64L1758.15,945.206L1762.23,945.55L1748.62,867.988L1727.2,942.6L1731.28,942.943L1714.32,1002.04L1718.4,1002.39L1713.42,1019.77L1740.72,1022.07L1768.03,1024.37L1764.85,1006.3L1768.93,1006.64Z" style="fill:rgb(232,244,247);fill-rule:nonzero;"/>
        <path d="M1842.68,1052.31L1833.46,1051.54L1839.27,938.123L1848.49,938.898L1842.68,1052.31Z" style="fill:rgb(232,244,247);fill-rule:nonzero;"/>
        <path d="M1876.92,1007.14L1864.46,936.194L1868.02,936.494L1849.41,830.507L1820.15,932.463L1823.71,932.763L1804.13,1001.01L1820.09,1002.36L1815.81,1017.29L1839.74,1019.3L1863.67,1021.32L1860.95,1005.8L1876.92,1007.14Z" style="fill:rgb(232,244,247);fill-rule:nonzero;"/>
        <path d="M1879.54,1054.09L1873.41,1053.61L1876.98,978.158L1883.11,978.637L1879.54,1054.09Z" style="fill:rgb(232,244,247);fill-rule:nonzero;"/>
        <path d="M1914.12,986.439L1885.42,865.024L1845.47,981.096L1857.55,982.036L1843.49,1022.88L1877.82,1025.56L1912.14,1028.23L1902.04,985.5L1914.12,986.439Z" style="fill:rgb(232,244,247);fill-rule:nonzero;"/>
        <path d="M2012.55,1046.98L1994.79,999.473L2000.68,1000.03L1991.64,975.851L1996.98,976.358L1983.42,940.104L1965.62,973.379L1970.83,973.875L1958.96,996.069L1965.5,996.691L1942.17,1040.29L1972.81,1043.2L1971.79,1063.67L1980.89,1064.43L1981.91,1044.07L2012.55,1046.98Z" style="fill:rgb(232,244,247);fill-rule:nonzero;"/>
        <path d="M1935.16,1053.89C1935.16,1053.89 1937.33,1042.74 1920.73,1042.9C1920.26,1042.9 1919.82,1042.92 1919.39,1042.94L1919.62,1038.86L1958.46,1042.29L1938.56,1001.66L1951.33,1002.78L1942.2,984.165L1952.3,985.057L1929.98,939.496L1938.76,940.271L1921.7,905.446L1901,936.939L1909.79,937.715L1882.71,978.914L1892.81,979.805L1881.74,996.643L1894.5,997.77L1870.36,1034.51L1911.38,1038.13L1911.01,1044.75C1905.45,1047.22 1904.98,1050.41 1893.27,1042.37C1877.03,1031.21 1871.3,1041.24 1871.3,1041.24C1871.3,1041.24 1863,1033.9 1857.11,1041.03C1855.03,1043.55 1851.75,1044.33 1848.36,1044.75L1849.05,1032.19C1850.07,1032.14 1851.12,1032.02 1852.23,1031.81C1873.44,1027.72 1861.2,1007.42 1861.04,998.797C1860.87,990.17 1874.29,989.036 1872.07,971.615C1869.84,954.194 1859.48,957.586 1860.73,946.434C1861.98,935.281 1859.97,922.238 1849.1,926.527C1842.92,928.963 1842,934.181 1835.18,948.484C1828.35,962.787 1841.07,968.548 1833.62,988.428C1827.19,1005.58 1829.92,1028.47 1844.42,1031.8L1843.68,1045.26C1839.22,1045.81 1835.47,1046.9 1835.18,1052.06L1943.38,1061.61C1943.38,1061.61 1944.27,1054.96 1935.16,1053.89Z" style="fill:rgb(232,244,247);fill-rule:nonzero;"/>
        <path d="M2113.92,1075.69L2105.86,1075.03L2109.81,994.395L2117.87,995.056L2113.92,1075.69Z" style="fill:rgb(232,244,247);fill-rule:nonzero;"/>
        <path d="M2139.28,1037.03L2143.73,1037.39L2128.11,969.211L2132.2,969.546L2118.1,907.954L2098.09,966.752L2102.18,967.086L2080.03,1032.17L2084.47,1032.54L2079.26,1047.85L2084.32,1048.27L2080.44,1059.68L2110.54,1062.15L2140.64,1064.62L2137.9,1052.66L2142.96,1053.07L2139.28,1037.03Z" style="fill:rgb(232,244,247);fill-rule:nonzero;"/>
        <path d="M2029.36,1068.53L2019.73,1067.72L2024.66,971.418L2034.29,972.229L2029.36,1068.53Z" style="fill:rgb(232,244,247);fill-rule:nonzero;"/>
        <path d="M2059.75,1022.42L2065.06,1022.87L2046.58,941.387L2051.46,941.798L2034.77,868.188L2010.73,938.365L2015.6,938.776L1988.98,1016.46L1994.29,1016.91L1988.03,1035.19L1994.07,1035.7L1989.4,1049.32L2025.35,1052.35L2061.3,1055.38L2058.06,1041.09L2064.1,1041.6L2059.75,1022.42Z" style="fill:rgb(232,244,247);fill-rule:nonzero;"/>
        <path d="M2074.1,1072.66L2067.19,1072.08L2070.73,1002.94L2077.64,1003.53L2074.1,1072.66Z" style="fill:rgb(232,244,247);fill-rule:nonzero;"/>
        <path d="M2099.62,1042.14L2088.25,992.007L2092.33,992.352L2077.98,929.06L2057.3,989.398L2061.38,989.742L2045,1037.54L2049.08,1037.88L2044.27,1051.94L2071.57,1054.24L2098.88,1056.54L2095.53,1041.8L2099.62,1042.14Z" style="fill:rgb(232,244,247);fill-rule:nonzero;"/>
        <path d="M2173.74,1080.45L2164.52,1079.67L2169.24,987.527L2178.45,988.304L2173.74,1080.45Z" style="fill:rgb(232,244,247);fill-rule:nonzero;"/>
        <path d="M2207.51,1044.25L2194.39,986.357L2197.94,986.656L2178.33,900.168L2150.08,982.623L2153.64,982.923L2134.72,1038.12L2150.69,1039.46L2146.55,1051.54L2170.49,1053.55L2194.42,1055.57L2191.55,1042.91L2207.51,1044.25Z" style="fill:rgb(232,244,247);fill-rule:nonzero;"/>
        <path d="M2210.59,1082.47L2204.46,1081.99L2207.3,1020.68L2213.43,1021.17L2210.59,1082.47Z" style="fill:rgb(232,244,247);fill-rule:nonzero;"/>
        <path d="M2244.49,1028L2214.64,928.809L2175.84,1022.57L2187.92,1023.53L2174.26,1056.53L2208.59,1059.24L2242.92,1061.96L2232.41,1027.05L2244.49,1028Z" style="fill:rgb(232,244,247);fill-rule:nonzero;"/>
        <path d="M644.649,553.539L633.126,552.654L628.351,552.297L628.215,554.304L627.875,559.729L627.688,562.688L622.845,562.381L623.031,559.405L623.354,554.304L623.507,551.923L617.712,551.48C616.998,546.362 616.25,541.176 615.554,535.955L619.904,528.252L616.437,527.979L622.896,516.569L620.125,516.348L622.402,512.317L629.813,499.224L632.6,506.57L636.797,517.623L633.959,517.402L636.984,525.378L638.616,529.663L635.506,529.425L635.488,529.442L644.649,553.539Z" style="fill:rgb(98,165,179);fill-rule:nonzero;"/>
        <path d="M698.418,567.369L694.131,567.097L696.741,525.914L701.028,526.186L698.418,567.369Z" style="fill:rgb(98,165,179);fill-rule:nonzero;"/>
        <path d="M712.161,547.434L714.523,547.584L706.642,512.913L708.813,513.051L701.694,481.731L690.677,511.9L692.849,512.038L680.653,545.434L683.015,545.584L680.146,553.442L682.835,553.612L680.695,559.471L696.702,560.486L712.708,561.502L711.326,555.421L714.016,555.592L712.161,547.434Z" style="fill:rgb(98,165,179);fill-rule:nonzero;"/>
        <path d="M653.45,564.399L648.33,564.063L651.559,514.873L656.679,515.21L653.45,564.399Z" style="fill:rgb(98,165,179);fill-rule:nonzero;"/>
        <path d="M669.921,540.622L672.742,540.807L663.42,499.371L666.014,499.541L657.593,462.108L644.351,498.117L646.945,498.288L632.288,538.149L635.109,538.334L631.66,547.714L634.872,547.925L632.301,554.916L651.419,556.172L670.537,557.429L668.902,550.161L672.114,550.372L669.921,540.622Z" style="fill:rgb(98,165,179);fill-rule:nonzero;"/>
        <path d="M677.241,566.143L673.564,565.901L675.884,530.592L679.56,530.833L677.241,566.143Z" style="fill:rgb(98,165,179);fill-rule:nonzero;"/>
        <path d="M691.014,550.363L685.278,524.869L687.449,525.012L680.209,492.826L668.822,523.787L670.993,523.93L661.974,548.455L664.144,548.598L661.49,555.811L676.011,556.766L690.53,557.72L688.844,550.221L691.014,550.363Z" style="fill:rgb(98,165,179);fill-rule:nonzero;"/>
        <path d="M730.226,569.314L725.326,568.992L728.416,521.93L733.315,522.252L730.226,569.314Z" style="fill:rgb(98,165,179);fill-rule:nonzero;"/>
        <path d="M748.433,550.57L741.809,521.129L743.702,521.254L733.808,477.272L718.249,519.581L720.142,519.705L709.727,548.026L718.217,548.584L715.938,554.779L728.665,555.616L741.392,556.452L739.942,550.012L748.433,550.57Z" style="fill:rgb(98,165,179);fill-rule:nonzero;"/>
        <path d="M749.829,570.053L746.569,569.854L748.47,538.543L751.729,538.741L749.829,570.053Z" style="fill:rgb(98,165,179);fill-rule:nonzero;"/>
        <path d="M768.218,541.979L752.954,491.596L731.71,539.762L738.134,540.152L730.657,557.103L748.911,558.212L767.165,559.32L761.794,541.59L768.218,541.979Z" style="fill:rgb(98,165,179);fill-rule:nonzero;"/>
        <path d="M820.558,567.1L811.111,547.388L814.246,547.62L809.438,537.586L812.276,537.796L805.067,522.752L795.601,536.56L798.374,536.766L792.059,545.976L795.537,546.233L783.133,564.326L799.425,565.533L798.879,574.027L803.723,574.342L804.266,565.893L820.558,567.1Z" style="fill:rgb(98,165,179);fill-rule:nonzero;"/>
        <path d="M779.405,569.97C779.405,569.97 780.558,565.344 771.729,565.408C771.483,565.41 771.249,565.416 771.02,565.425L771.138,563.731L791.796,565.154L781.211,548.295L788,548.762L783.149,541.035L788.518,541.405L776.648,522.5L781.32,522.821L772.248,508.369L761.241,521.438L765.913,521.76L751.514,538.856L756.882,539.227L750.997,546.213L757.786,546.681L744.944,561.928L766.758,563.43L766.565,566.176C763.606,567.199 763.355,568.523 757.132,565.188C748.495,560.559 745.445,564.719 745.445,564.719C745.445,564.719 741.034,561.675 737.899,564.632C736.792,565.677 735.051,566 733.248,566.178L733.614,560.963C734.155,560.944 734.718,560.894 735.306,560.805C746.586,559.107 740.075,550.688 739.989,547.107C739.902,543.527 747.037,543.057 745.854,535.828C744.672,528.599 739.161,530.006 739.825,525.378C740.489,520.75 739.423,515.338 733.642,517.117C730.358,518.129 729.868,520.294 726.237,526.229C722.607,532.164 729.372,534.555 725.41,542.805C721.992,549.922 723.442,559.42 731.151,560.803L730.759,566.39C728.386,566.616 726.393,567.066 726.242,569.209L783.776,573.172C783.776,573.172 784.246,570.413 779.405,569.97Z" style="fill:rgb(98,165,179);fill-rule:nonzero;"/>
        <path d="M874.461,579.016L870.174,578.74L872.275,545.28L876.563,545.555L874.461,579.016Z" style="fill:rgb(98,165,179);fill-rule:nonzero;"/>
        <path d="M887.947,562.972L890.31,563.123L882.008,534.83L884.18,534.969L876.681,509.41L866.043,533.81L868.216,533.948L856.44,560.957L858.803,561.108L856.032,567.464L858.721,567.636L856.655,572.373L872.661,573.396L888.668,574.42L887.212,569.457L889.9,569.629L887.947,562.972Z" style="fill:rgb(98,165,179);fill-rule:nonzero;"/>
        <path d="M829.493,576.046L824.373,575.709L826.993,535.746L832.114,536.082L829.493,576.046Z" style="fill:rgb(98,165,179);fill-rule:nonzero;"/>
        <path d="M845.657,556.912L848.479,557.098L838.654,523.284L841.249,523.455L832.374,492.909L819.586,522.03L822.181,522.201L808.025,554.438L810.847,554.623L807.516,562.208L810.728,562.419L808.244,568.073L827.362,569.33L846.48,570.588L844.758,564.657L847.97,564.868L845.657,556.912Z" style="fill:rgb(98,165,179);fill-rule:nonzero;"/>
        <path d="M853.286,577.757L849.61,577.516L851.492,548.828L855.168,549.07L853.286,577.757Z" style="fill:rgb(98,165,179);fill-rule:nonzero;"/>
        <path d="M866.854,565.094L860.81,544.29L862.979,544.433L855.35,518.168L844.354,543.207L846.523,543.35L837.813,563.184L839.983,563.326L837.421,569.16L851.941,570.115L866.461,571.07L864.684,564.951L866.854,565.094Z" style="fill:rgb(98,165,179);fill-rule:nonzero;"/>
        <path d="M906.267,580.989L901.367,580.667L903.875,542.431L908.774,542.753L906.267,580.989Z" style="fill:rgb(98,165,179);fill-rule:nonzero;"/>
        <path d="M924.228,565.97L917.247,541.945L919.14,542.069L908.713,506.18L893.688,540.396L895.58,540.52L885.522,563.424L894.012,563.982L891.812,568.992L904.538,569.83L917.265,570.667L915.737,565.411L924.228,565.97Z" style="fill:rgb(98,165,179);fill-rule:nonzero;"/>
        <path d="M925.863,581.831L922.604,581.63L924.116,556.189L927.376,556.391L925.863,581.831Z" style="fill:rgb(98,165,179);fill-rule:nonzero;"/>
        <path d="M943.892,559.227L928.021,518.064L907.386,556.974L913.81,557.37L906.548,571.063L924.801,572.189L943.054,573.316L937.468,558.83L943.892,559.227Z" style="fill:rgb(98,165,179);fill-rule:nonzero;"/>
        <path d="M897.954,577.919L886.522,575.973L881.784,575.177L881.507,577.461L880.784,583.639L880.389,587.008L875.579,586.265L875.976,582.876L876.658,577.066L876.979,574.355L871.229,573.38C870.879,567.467 870.5,561.474 870.174,555.445L875.058,546.986L871.619,546.394L878.867,533.865L876.12,533.388L878.676,528.963L886.993,514.586L889.254,523.215L892.66,536.199L889.845,535.717L892.299,545.085L893.623,550.119L890.538,549.595L890.52,549.612L897.954,577.919Z" style="fill:rgb(98,165,179);fill-rule:nonzero;"/>
        <path d="M950.61,598.102L946.354,597.442L951.868,550.547L956.125,551.205L950.61,598.102Z" style="fill:rgb(98,165,179);fill-rule:nonzero;"/>
        <path d="M965.728,576.414L968.073,576.777L962.662,536.479L964.819,536.813L959.931,500.41L946.809,534.025L948.966,534.359L934.44,571.57L936.786,571.934L933.368,580.688L936.038,581.102L933.491,587.629L949.386,590.09L965.28,592.55L964.331,585.482L967.002,585.896L965.728,576.414Z" style="fill:rgb(98,165,179);fill-rule:nonzero;"/>
        <path d="M905.966,591.057L900.882,590.256L907.578,534.252L912.662,535.053L905.966,591.057Z" style="fill:rgb(98,165,179);fill-rule:nonzero;"/>
        <path d="M924.075,565.194L926.876,565.636L920.506,517.481L923.081,517.887L917.327,474.386L901.573,514.501L904.149,514.906L886.711,559.313L889.513,559.754L885.409,570.202L888.599,570.704L885.539,578.492L904.521,581.481L923.503,584.469L922.386,576.023L925.574,576.525L924.075,565.194Z" style="fill:rgb(98,165,179);fill-rule:nonzero;"/>
        <path d="M929.573,594.981L925.923,594.406L930.731,554.205L934.382,554.779L929.573,594.981Z" style="fill:rgb(98,165,179);fill-rule:nonzero;"/>
        <path d="M944.427,578.049L940.508,548.421L942.663,548.761L937.716,511.357L924.17,545.849L926.324,546.188L915.595,573.51L917.749,573.849L914.593,581.885L929.009,584.154L943.425,586.425L942.272,577.71L944.427,578.049Z" style="fill:rgb(98,165,179);fill-rule:nonzero;"/>
        <path d="M982.201,602.908L977.337,602.143L983.745,548.559L988.608,549.325L982.201,602.908Z" style="fill:rgb(98,165,179);fill-rule:nonzero;"/>
        <path d="M1001.69,582.944L997.161,548.73L999.04,549.026L992.278,497.915L973.77,545.048L975.648,545.344L963.258,576.895L971.688,578.221L968.977,585.123L981.612,587.112L994.247,589.102L993.258,581.617L1001.69,582.944Z" style="fill:rgb(98,165,179);fill-rule:nonzero;"/>
        <path d="M1001.7,605.343L998.466,604.852L1002.57,569.19L1005.81,569.682L1001.7,605.343Z" style="fill:rgb(98,165,179);fill-rule:nonzero;"/>
        <path d="M1022.03,574.724L1010.37,515.854L985.771,569.225L992.151,570.191L983.495,588.975L1001.63,591.725L1019.75,594.474L1015.65,573.756L1022.03,574.724Z" style="fill:rgb(98,165,179);fill-rule:nonzero;"/>
        <path d="M1072.46,607.704L1064.43,584.391L1067.54,584.91L1063.46,573.041L1066.27,573.513L1060.15,555.719L1049.73,570.746L1052.48,571.206L1045.53,581.229L1048.98,581.806L1035.33,601.494L1051.5,604.197L1050.35,613.869L1055.16,614.622L1056.3,605.001L1072.46,607.704Z" style="fill:rgb(98,165,179);fill-rule:nonzero;"/>
        <path d="M1031.21,607.648C1031.21,607.648 1032.69,602.45 1023.88,601.809C1023.63,601.79 1023.4,601.778 1023.17,601.769L1023.41,599.842L1043.91,603.146L1034.54,583.001L1041.28,584.086L1036.99,574.855L1042.32,575.714L1031.82,553.125L1036.45,553.872L1028.43,536.605L1016.52,550.661L1021.16,551.408L1005.59,569.796L1010.92,570.654L1004.55,578.169L1011.29,579.254L997.405,595.652L1019.06,599.142L1018.67,602.266C1015.65,603.197 1015.3,604.691 1009.33,600.37C1001.04,594.375 997.708,598.886 997.708,598.886C997.708,598.886 993.522,595.046 990.188,598.174C989.009,599.279 987.249,599.508 985.438,599.565L986.172,593.631C986.713,593.652 987.277,593.641 987.87,593.586C999.241,592.561 993.343,582.4 993.51,578.299C993.676,574.196 1000.83,574.237 1000.16,565.872C999.489,557.507 993.894,558.67 994.882,553.43C995.871,548.19 995.19,541.912 989.298,543.479C985.951,544.369 985.309,546.807 981.269,553.301C977.228,559.796 983.807,563.079 979.271,572.193C975.358,580.058 976.135,591.04 983.727,593.246L982.939,599.605C980.557,599.672 978.537,600.025 978.235,602.465L1035.34,611.666C1035.34,611.666 1036.01,608.548 1031.21,607.648Z" style="fill:rgb(98,165,179);fill-rule:nonzero;"/>
        <path d="M1125.39,625.707L1121.13,625.046L1125.59,586.942L1129.85,587.604L1125.39,625.707Z" style="fill:rgb(98,165,179);fill-rule:nonzero;"/>
        <path d="M1139.98,608.45L1142.32,608.814L1136.04,575.778L1138.2,576.113L1132.52,546.27L1120.19,573.315L1122.34,573.65L1108.69,603.59L1111.04,603.954L1107.82,610.999L1110.49,611.414L1108.1,616.665L1123.99,619.135L1139.89,621.604L1138.78,615.809L1141.45,616.225L1139.98,608.45Z" style="fill:rgb(98,165,179);fill-rule:nonzero;"/>
        <path d="M1080.75,618.662L1075.66,617.861L1081.1,572.361L1086.18,573.162L1080.75,618.662Z" style="fill:rgb(98,165,179);fill-rule:nonzero;"/>
        <path d="M1098.22,598.087L1101.02,598.528L1093.61,559.053L1096.19,559.459L1089.49,523.799L1074.68,556.072L1077.26,556.478L1060.86,592.203L1063.66,592.645L1059.8,601.051L1062.99,601.553L1060.11,607.818L1079.09,610.809L1098.08,613.797L1096.78,606.873L1099.96,607.376L1098.22,598.087Z" style="fill:rgb(98,165,179);fill-rule:nonzero;"/>
        <path d="M1104.36,622.551L1100.71,621.976L1104.61,589.313L1108.26,589.889L1104.36,622.551Z" style="fill:rgb(98,165,179);fill-rule:nonzero;"/>
        <path d="M1118.79,609.166L1114.23,584.879L1116.38,585.218L1110.63,554.557L1097.89,582.305L1100.04,582.645L1089.95,604.625L1092.11,604.965L1089.14,611.43L1103.56,613.7L1117.97,615.971L1116.63,608.827L1118.79,609.166Z" style="fill:rgb(98,165,179);fill-rule:nonzero;"/>
        <path d="M1156.98,630.546L1152.11,629.78L1157.32,586.246L1162.18,587.013L1156.98,630.546Z" style="fill:rgb(98,165,179);fill-rule:nonzero;"/>
        <path d="M1175.95,614.823L1170.69,586.776L1172.57,587.072L1164.7,545.173L1147.3,583.092L1149.18,583.388L1137.53,608.771L1145.95,610.099L1143.41,615.65L1156.04,617.641L1168.68,619.631L1167.52,613.496L1175.95,614.823Z" style="fill:rgb(98,165,179);fill-rule:nonzero;"/>
        <path d="M1176.46,633.1L1173.23,632.604L1176.53,603.627L1179.77,604.121L1176.46,633.1Z" style="fill:rgb(98,165,179);fill-rule:nonzero;"/>
        <path d="M1196.04,608.706L1183.12,560.334L1159.79,603.166L1166.17,604.142L1157.96,619.215L1176.09,621.985L1194.21,624.755L1189.67,607.731L1196.04,608.706Z" style="fill:rgb(98,165,179);fill-rule:nonzero;"/>
        <path d="M412.363,456.076L401.532,452.041L397.041,450.378L396.356,452.269L394.532,457.389L393.536,460.181L388.965,458.548L389.966,455.739L391.686,450.926L392.489,448.68L387.041,446.653C387.769,441.536 388.481,436.345 389.253,431.135L395.562,424.934L392.304,423.714L401.661,414.531L399.06,413.554L402.361,410.31L413.098,399.773L413.748,407.604L414.731,419.388L412.064,418.391L412.771,426.893L413.155,431.461L410.231,430.373L410.211,430.385L412.363,456.076Z" style="fill:rgb(98,165,179);fill-rule:nonzero;"/>
        <path d="M460.222,484.229L456.177,482.782L470.054,443.923L474.1,445.369L460.222,484.229Z" style="fill:rgb(98,165,179);fill-rule:nonzero;"/>
        <path d="M478.934,468.867L481.162,469.664L483.158,434.165L485.208,434.898L487.011,402.829L468.094,428.779L470.144,429.512L449.203,458.237L451.432,459.034L446.505,465.793L449.042,466.701L445.369,471.739L460.473,477.14L475.576,482.54L475.926,476.313L478.464,477.221L478.934,468.867Z" style="fill:rgb(98,165,179);fill-rule:nonzero;"/>
        <path d="M417.823,468.946L412.995,467.207L429.677,420.824L434.506,422.563L417.823,468.946Z" style="fill:rgb(98,165,179);fill-rule:nonzero;"/>
        <path d="M440.217,450.646L442.877,451.604L445.356,409.203L447.803,410.084L450.042,371.78L427.376,402.729L429.822,403.609L404.731,437.868L407.392,438.826L401.487,446.888L404.516,447.979L400.114,453.986L418.143,460.479L436.17,466.97L436.604,459.533L439.634,460.623L440.217,450.646Z" style="fill:rgb(98,165,179);fill-rule:nonzero;"/>
        <path d="M440.207,477.197L436.74,475.949L448.717,442.654L452.183,443.902L440.207,477.197Z" style="fill:rgb(98,165,179);fill-rule:nonzero;"/>
        <path d="M457.8,465.839L459.326,439.751L461.372,440.488L463.3,407.554L443.809,434.163L445.855,434.9L430.417,455.978L432.463,456.715L427.922,462.914L441.613,467.845L455.305,472.775L455.754,465.102L457.8,465.839Z" style="fill:rgb(98,165,179);fill-rule:nonzero;"/>
        <path d="M490.255,494.891L485.635,493.227L501.596,448.848L506.216,450.512L490.255,494.891Z" style="fill:rgb(98,165,179);fill-rule:nonzero;"/>
        <path d="M512.927,481.907L514.689,451.781L516.474,452.424L519.104,407.419L492.474,443.781L494.258,444.424L476.43,468.765L484.436,471.647L480.536,476.972L492.536,481.293L504.536,485.614L504.922,479.024L512.927,481.907Z" style="fill:rgb(98,165,179);fill-rule:nonzero;"/>
        <path d="M508.892,501.018L505.813,499.926L516.283,470.358L519.361,471.449L508.892,501.018Z" style="fill:rgb(98,165,179);fill-rule:nonzero;"/>
        <path d="M534.314,479.119L533.553,426.478L499.839,466.897L505.906,469.048L494.041,483.273L511.278,489.384L528.517,495.494L528.248,476.969L534.314,479.119Z" style="fill:rgb(98,165,179);fill-rule:nonzero;"/>
        <path d="M577.684,517.729L574.046,496.172L576.995,497.262L575.144,486.289L577.814,487.275L575.038,470.824L562.128,481.479L564.737,482.442L556.125,489.549L559.396,490.758L542.48,504.719L557.806,510.382L554.937,518.395L559.505,520.035L562.358,512.064L577.684,517.729Z" style="fill:rgb(98,165,179);fill-rule:nonzero;"/>
        <path d="M537.341,509.112C537.341,509.112 539.726,504.985 531.223,502.607C530.985,502.541 530.758,502.482 530.535,502.427L531.117,500.832L550.577,507.909L545.06,488.779L551.455,491.105L548.926,482.339L553.983,484.178L547.795,462.728L552.196,464.328L547.467,447.932L533.28,457.449L537.682,459.049L519.123,471.501L524.18,473.34L516.594,478.428L522.991,480.754L506.44,491.858L526.99,499.332L526.047,501.917C522.921,502.083 522.314,503.287 517.253,498.36C510.231,491.523 506.151,494.68 506.151,494.68C506.151,494.68 502.752,490.535 498.923,492.511C497.57,493.209 495.808,493.038 494.025,492.711L495.817,487.801C496.343,487.932 496.897,488.038 497.486,488.115C508.796,489.602 504.863,479.71 505.769,476.245C506.674,472.781 513.661,474.301 514.521,467.025C515.379,459.751 509.694,459.581 511.609,455.316C513.524,451.053 513.995,445.556 507.947,445.668C504.512,445.732 503.443,447.678 498.315,452.379C493.188,457.08 499.03,461.247 492.945,468.08C487.694,473.977 486.468,483.506 493.494,486.965L491.574,492.227C489.231,491.788 487.191,491.67 486.455,493.688L540.657,513.398C540.657,513.398 541.87,510.877 537.341,509.112Z" style="fill:rgb(98,165,179);fill-rule:nonzero;"/>
        <path d="M626.2,544.078L622.155,542.63L633.412,511.052L637.457,512.5L626.2,544.078Z" style="fill:rgb(98,165,179);fill-rule:nonzero;"/>
        <path d="M643.591,532.387L645.819,533.185L645.651,503.698L647.7,504.432L647.548,477.795L630.59,498.305L632.639,499.039L613.866,521.742L616.095,522.541L611.677,527.883L614.214,528.791L610.921,532.773L626.022,538.181L641.123,543.588L641.094,538.416L643.631,539.324L643.591,532.387Z" style="fill:rgb(98,165,179);fill-rule:nonzero;"/>
        <path d="M583.803,528.796L578.974,527.057L592.524,489.373L597.353,491.111L583.803,528.796Z" style="fill:rgb(98,165,179);fill-rule:nonzero;"/>
        <path d="M604.62,514.874L607.279,515.832L607.172,480.619L609.618,481.5L609.521,449.689L589.191,474.144L591.638,475.024L569.134,502.095L571.794,503.053L566.499,509.422L569.528,510.513L565.581,515.261L583.608,521.753L601.636,528.245L601.616,522.069L604.645,523.16L604.62,514.874Z" style="fill:rgb(98,165,179);fill-rule:nonzero;"/>
        <path d="M606.196,537.017L602.73,535.769L612.458,508.717L615.925,509.966L606.196,537.017Z" style="fill:rgb(98,165,179);fill-rule:nonzero;"/>
        <path d="M622.731,528.596L622.666,506.931L624.713,507.668L624.63,480.316L607.149,501.342L609.195,502.079L595.35,518.734L597.396,519.471L593.322,524.369L607.014,529.301L620.705,534.231L620.686,527.859L622.731,528.596Z" style="fill:rgb(98,165,179);fill-rule:nonzero;"/>
        <path d="M656.224,554.766L651.604,553.103L664.569,517.047L669.189,518.711L656.224,554.766Z" style="fill:rgb(98,165,179);fill-rule:nonzero;"/>
        <path d="M677.633,545.295L677.556,520.276L679.341,520.919L679.227,483.543L655.34,512.275L657.125,512.918L641.136,532.15L649.141,535.034L645.644,539.241L669.644,547.885L669.627,542.412L677.633,545.295Z" style="fill:rgb(98,165,179);fill-rule:nonzero;"/>
        <path d="M674.825,560.991L671.748,559.897L680.226,535.864L683.303,536.959L674.825,560.991Z" style="fill:rgb(98,165,179);fill-rule:nonzero;"/>
        <path d="M698.393,544.25L694.501,500.302L663.93,531.994L669.993,534.15L659.234,545.305L676.466,551.432L693.697,557.56L692.328,542.094L698.393,544.25Z" style="fill:rgb(98,165,179);fill-rule:nonzero;"/>
        <path d="M122.223,415.164L110.688,414.463L105.907,414.182L105.803,416.19L105.549,421.619L105.409,424.581L100.562,424.352L100.7,421.373L100.942,416.268L101.058,413.885L95.255,413.534C94.461,408.428 93.63,403.254 92.851,398.045L97.08,390.273L93.609,390.057L99.884,378.545L97.112,378.367L99.325,374.302L106.526,361.092L109.43,368.393L113.802,379.378L110.961,379.202L114.112,387.129L115.812,391.387L112.698,391.199L112.682,391.216L122.223,415.164Z" style="fill:rgb(98,165,179);fill-rule:nonzero;"/>
        <path d="M182.547,405.391L178.256,405.186L180.213,363.967L184.504,364.171L182.547,405.391Z" style="fill:rgb(98,165,179);fill-rule:nonzero;"/>
        <path d="M195.972,385.238L198.336,385.352L189.905,350.811L192.08,350.914L184.464,319.711L173.927,350.051L176.101,350.154L164.437,383.74L166.801,383.853L164.056,391.755L166.747,391.883L164.701,397.773L180.722,398.535L196.743,399.297L195.264,393.238L197.956,393.366L195.972,385.238Z" style="fill:rgb(98,165,179);fill-rule:nonzero;"/>
        <path d="M131.195,410.676L126.07,410.42L128.518,361.187L133.644,361.441L131.195,410.676Z" style="fill:rgb(98,165,179);fill-rule:nonzero;"/>
        <path d="M147.286,386.641L150.11,386.78L140.132,345.497L142.729,345.627L133.714,308.332L121.046,344.547L123.643,344.677L109.619,384.766L112.443,384.906L109.144,394.339L112.357,394.498L109.897,401.529L129.034,402.482L148.17,403.435L146.419,396.193L149.634,396.354L147.286,386.641Z" style="fill:rgb(98,165,179);fill-rule:nonzero;"/>
        <path d="M155.497,417.39L151.818,417.207L153.576,381.864L157.256,382.047L155.497,417.39Z" style="fill:rgb(98,165,179);fill-rule:nonzero;"/>
        <path d="M169.019,401.394L162.88,375.993L165.052,376.102L157.302,344.035L146.408,375.173L148.581,375.281L139.952,399.946L142.124,400.055L139.585,407.309L154.119,408.033L168.652,408.757L166.847,401.285L169.019,401.394Z" style="fill:rgb(98,165,179);fill-rule:nonzero;"/>
        <path d="M208.039,405.874L203.135,405.63L205.478,358.523L210.381,358.768L208.039,405.874Z" style="fill:rgb(98,165,179);fill-rule:nonzero;"/>
        <path d="M225.945,386.843L218.856,357.511L220.751,357.605L210.159,313.787L195.274,356.337L197.169,356.432L187.204,384.914L195.702,385.338L193.522,391.568L206.261,392.202L218.999,392.836L217.448,386.42L225.945,386.843Z" style="fill:rgb(98,165,179);fill-rule:nonzero;"/>
        <path d="M227.651,406.301L224.389,406.154L225.792,374.816L229.054,374.963L227.651,406.301Z" style="fill:rgb(98,165,179);fill-rule:nonzero;"/>
        <path d="M245.593,377.939L229.531,327.805L209.054,376.302L215.483,376.59L208.277,393.657L226.546,394.477L244.815,395.295L239.163,377.65L245.593,377.939Z" style="fill:rgb(98,165,179);fill-rule:nonzero;"/>
        <path d="M304.468,387.494L294.71,367.935L297.848,368.117L292.881,358.16L295.723,358.326L288.275,343.397L279.028,357.354L281.806,357.516L275.638,366.825L279.119,367.027L267.004,385.315L283.313,386.264L282.902,394.766L287.75,395.002L288.158,386.546L304.468,387.494Z" style="fill:rgb(98,165,179);fill-rule:nonzero;"/>
        <path d="M359.435,403.947L355.144,403.741L356.714,370.252L361.005,370.458L359.435,403.947Z" style="fill:rgb(98,165,179);fill-rule:nonzero;"/>
        <path d="M372.665,387.692L375.029,387.806L366.279,359.648L368.453,359.753L360.55,334.316L350.301,358.881L352.475,358.985L341.13,386.179L343.494,386.292L340.825,392.69L343.517,392.819L341.526,397.589L357.547,398.358L373.567,399.127L372.032,394.188L374.724,394.317L372.665,387.692Z" style="fill:rgb(98,165,179);fill-rule:nonzero;"/>
        <path d="M307.401,393.074L302.275,392.819L304.262,352.819L309.388,353.075L307.401,393.074Z" style="fill:rgb(98,165,179);fill-rule:nonzero;"/>
        <path d="M323.26,373.687L326.083,373.827L315.724,340.174L318.32,340.304L308.962,309.902L296.638,339.223L299.234,339.353L285.593,371.811L288.416,371.95L285.206,379.588L288.421,379.748L286.028,385.44L305.164,386.395L324.3,387.348L322.482,381.445L325.697,381.605L323.26,373.687Z" style="fill:rgb(98,165,179);fill-rule:nonzero;"/>
        <path d="M257.29,401.23L252.165,400.976L254.151,360.976L259.276,361.23L257.29,401.23Z" style="fill:rgb(98,165,179);fill-rule:nonzero;"/>
        <path d="M273.148,381.843L275.973,381.983L265.612,348.33L268.21,348.46L258.851,318.059L246.526,347.379L249.124,347.509L235.481,379.966L238.306,380.106L235.095,387.744L238.31,387.904L235.917,393.597L255.053,394.55L274.188,395.504L272.371,389.602L275.586,389.762L273.148,381.843Z" style="fill:rgb(98,165,179);fill-rule:nonzero;"/>
        <path d="M333.373,388.25L329.694,388.066L331.121,359.353L334.8,359.536L333.373,388.25Z" style="fill:rgb(98,165,179);fill-rule:nonzero;"/>
        <path d="M346.738,375.373L340.364,354.667L342.537,354.775L334.491,328.636L323.894,353.846L326.065,353.954L317.672,373.924L319.844,374.032L317.374,379.906L331.907,380.631L346.441,381.354L344.566,375.265L346.738,375.373Z" style="fill:rgb(98,165,179);fill-rule:nonzero;"/>
        <path d="M378.193,399.575L373.393,398.543L381.438,361.08L386.238,362.112L378.193,399.575Z" style="fill:rgb(98,165,179);fill-rule:nonzero;"/>
        <path d="M398.148,387.333L394.739,362.547L396.593,362.946L391.5,325.92L371.655,357.582L373.51,357.98L360.226,379.175L368.544,380.965L365.639,385.601L378.107,388.283L390.576,390.965L389.83,385.543L398.148,387.333Z" style="fill:rgb(98,165,179);fill-rule:nonzero;"/>
        <path d="M398.579,412.359L395.464,411.38L403.044,387.049L406.16,388.028L398.579,412.359Z" style="fill:rgb(98,165,179);fill-rule:nonzero;"/>
        <path d="M421.51,394.755L415.993,350.981L386.616,383.786L392.756,385.717L382.417,397.262L399.864,402.745L417.312,408.229L415.369,392.824L421.51,394.755Z" style="fill:rgb(98,165,179);fill-rule:nonzero;"/>
        <path d="M2864,1115.59L2864,1322.37C2481.5,1442.68 1924.84,1536.58 1924.84,1536.58L0,1409.72L0,823.46C178.811,821.582 578.761,846.192 1040.65,886.921C1045.94,887.369 1051.24,887.846 1056.53,888.295C1074.24,889.893 1092.05,891.463 1109.93,893.088C1115.25,893.564 1120.57,894.069 1125.92,894.545C1389.56,918.539 1669.67,947.411 1938.01,979.365C1941.76,979.813 1945.54,980.263 1949.3,980.711C1973.19,983.542 1997.01,986.43 2020.71,989.344C2024.46,989.793 2028.21,990.27 2031.94,990.718C2346.25,1029.4 2639.3,1072.03 2864,1115.59Z" style="fill:white;fill-rule:nonzero;"/>
        <path d="M2070.26,250.995L2461.47,250.995C2461.47,250.995 2419.36,244.621 2405.78,221.25C2392.19,197.879 2343.29,181.944 2320.2,211.689C2297.11,241.435 2265.86,221.25 2230.55,204.253C2195.23,187.256 2070.26,250.995 2070.26,250.995Z" style="fill:rgb(216,227,230);fill-rule:nonzero;"/>
        <path d="M2302.95,252.05L2602.5,252.05C2602.5,252.05 2570.26,247.38 2559.85,230.255C2549.45,213.129 2512.01,201.453 2494.33,223.248C2476.65,245.045 2452.72,230.255 2425.68,217.8C2398.64,205.345 2302.95,252.05 2302.95,252.05Z" style="fill:rgb(216,227,230);fill-rule:nonzero;"/>
        <path d="M557.83,870.695L528.462,870.702L528.389,620.971L557.756,620.964L557.83,870.695Z" style="fill:rgb(2,36,30);fill-rule:nonzero;"/>
        <path d="M647.469,813.828L652.781,829.763L543.138,829.785L433.493,829.809L445.54,793.615L427.121,793.615L437.953,761.069L443.284,745.059L443.284,745.051L427.104,745.059L495.812,538.666L480.932,538.674L542.991,352.227L605.171,538.643L590.292,538.643L596.931,558.566L659.111,745.006L642.931,745.006L659.128,793.563L640.709,793.57L647.469,813.828Z" style="fill:rgb(43,74,69);fill-rule:nonzero;"/>
        <path d="M596.931,558.566L596.931,558.573L527.534,538.643L590.292,538.643L596.931,558.566Z" style="fill:rgb(1,26,21);fill-rule:nonzero;"/>
        <path d="M511.982,745.059L437.953,761.069L443.284,745.059L511.982,745.059Z" style="fill:rgb(1,26,21);fill-rule:nonzero;"/>
        <path d="M640.709,793.57L647.469,813.828L510.2,793.563L659.128,793.563L640.709,793.57Z" style="fill:rgb(1,26,21);fill-rule:nonzero;"/>
        <path d="M237.295,839.463L214.389,839.469L214.331,644.684L237.237,644.679L237.295,839.463Z" style="fill:rgb(2,36,30);fill-rule:nonzero;"/>
        <path d="M307.211,795.108L311.355,807.537L225.835,807.555L140.315,807.572L149.711,779.343L135.345,779.343L143.794,753.957L147.951,741.47L147.951,741.464L135.331,741.47L188.922,580.488L177.315,580.494L225.721,435.069L274.22,580.47L262.614,580.47L267.793,596.01L316.292,741.428L303.672,741.428L316.306,779.301L301.938,779.307L307.211,795.108Z" style="fill:rgb(21,77,66);fill-rule:nonzero;"/>
        <path d="M267.793,596.01L267.793,596.016L213.665,580.47L262.614,580.47L267.793,596.01Z" style="fill:rgb(2,36,30);fill-rule:nonzero;"/>
        <path d="M201.535,741.47L143.794,753.957L147.951,741.47L201.535,741.47Z" style="fill:rgb(2,36,30);fill-rule:nonzero;"/>
        <path d="M301.938,779.307L307.211,795.108L200.145,779.301L316.306,779.301L301.938,779.307Z" style="fill:rgb(2,36,30);fill-rule:nonzero;"/>
        <path d="M36.523,850.862C36.523,850.862 180.325,764.556 276.837,816.163C373.349,867.771 461.314,877.467 461.314,877.467C461.314,877.467 377.689,917.121 207.106,883.992C36.523,850.862 25.866,868.718 25.866,868.718L36.523,850.862Z" style="fill:rgb(206,218,224);fill-rule:nonzero;"/>
        <path d="M236.865,969.436C236.865,969.436 408.551,827.378 528.456,852.6C648.362,877.82 697.639,902.682 748.366,895.134C799.094,887.586 739.608,930.535 613.74,925.879C487.871,921.223 339.652,933.714 236.865,969.436Z" style="fill:rgb(209,232,240);fill-rule:nonzero;"/>
        <path d="M568.413,428.441C568.413,428.441 550.061,415.355 538.124,452.727C526.187,490.097 513.13,515.105 493.314,501.471C473.498,487.836 529.432,361.922 542.991,352.227C556.55,342.529 568.413,428.441 568.413,428.441Z" style="fill:rgb(209,232,240);fill-rule:nonzero;"/>
        <path d="M495.812,538.666C495.812,538.666 563.494,533.159 540.864,591.018C518.234,648.875 444.88,680.01 435.992,712.534C427.104,745.059 441.94,596.639 495.812,538.666Z" style="fill:rgb(209,232,240);fill-rule:nonzero;"/>
        <path d="M2485.77,1014.35L2462.95,1014.36L2462.89,820.279L2485.72,820.274L2485.77,1014.35Z" style="fill:rgb(2,36,30);fill-rule:nonzero;"/>
        <path d="M2555.44,970.16L2559.57,982.543L2474.36,982.561L2389.14,982.578L2398.51,954.451L2384.19,954.451L2392.61,929.158L2396.75,916.715L2396.75,916.709L2384.18,916.715L2437.58,756.315L2426.01,756.321L2474.24,611.423L2522.57,756.298L2511,756.298L2516.16,771.781L2564.49,916.674L2551.91,916.674L2564.5,954.41L2550.18,954.416L2555.44,970.16Z" style="fill:rgb(43,74,69);fill-rule:nonzero;"/>
        <path d="M2516.16,771.781L2516.16,771.787L2462.23,756.298L2511,756.298L2516.16,771.781Z" style="fill:rgb(1,26,21);fill-rule:nonzero;"/>
        <path d="M2450.14,916.715L2392.61,929.158L2396.75,916.715L2450.14,916.715Z" style="fill:rgb(1,26,21);fill-rule:nonzero;"/>
        <path d="M2550.18,954.416L2555.44,970.16L2448.76,954.41L2564.5,954.41L2550.18,954.416Z" style="fill:rgb(1,26,21);fill-rule:nonzero;"/>
        <path d="M2187.28,1090.62C2187.28,1090.62 2375.12,970.771 2491.02,1010.56C2606.91,1050.34 2652.76,1081.08 2704.03,1079.83C2755.3,1078.58 2690.99,1113.89 2566.65,1093.78C2442.3,1073.66 2293.67,1067.82 2187.28,1090.62Z" style="fill:rgb(209,232,240);fill-rule:nonzero;"/>
        <path d="M177.315,580.494C177.315,580.494 199.125,579.885 216.081,540.055C233.038,500.224 225.721,435.069 225.721,435.069C225.721,435.069 178.757,541.306 177.315,580.494Z" style="fill:rgb(209,232,240);fill-rule:nonzero;"/>
        <path d="M1125.92,894.545C1081.16,915.54 1030.51,946.262 1014.88,980.599C1009.05,993.408 1004.04,1010.25 998.237,1029.74C975.882,1104.97 942.098,1218.63 807.688,1223.96L807.353,1215.55C935.738,1210.48 967.198,1104.63 990.196,1027.35C996.079,1007.56 1001.15,990.465 1007.23,977.123C1022.64,943.233 1067.35,914.11 1109.93,893.088C1115.25,893.564 1120.57,894.069 1125.92,894.545Z" style="fill:rgb(240,240,240);fill-rule:nonzero;"/>
        <path d="M1056.53,888.295C1013.06,909.177 965.517,938.918 950.445,971.994C944.619,984.831 939.632,1001.65 933.834,1021.16C911.45,1096.36 877.666,1210.03 743.257,1215.35L742.949,1206.94C871.335,1201.87 902.794,1096.03 925.766,1018.75C931.648,998.959 936.747,981.86 942.798,968.518C957.617,935.891 999.581,907.691 1040.65,886.921C1045.94,887.369 1051.24,887.846 1056.53,888.295Z" style="fill:rgb(240,240,240);fill-rule:nonzero;"/>
        <path d="M1955.6,1141.44C1896.04,1210.64 1933.3,1271.19 1933.7,1271.81L1926.61,1276.29C1926.19,1275.65 1885.65,1209.83 1949.21,1135.97C1995.63,1082.01 1981.66,1038.96 1938.01,979.365C1941.76,979.813 1945.54,980.263 1949.3,980.711C1990.82,1039.29 2003.98,1085.21 1955.6,1141.44Z" style="fill:rgb(240,240,240);fill-rule:nonzero;"/>
        <path d="M2036.08,1148.39C1976.56,1217.6 2013.79,1278.14 2014.18,1278.76L2007.09,1283.24C2006.67,1282.6 1966.16,1216.78 2029.73,1142.92C2075.33,1089.89 2062.61,1047.37 2020.71,989.344C2024.46,989.793 2028.21,990.27 2031.94,990.718C2071.75,1047.84 2083.6,1093.14 2036.08,1148.39Z" style="fill:rgb(240,240,240);fill-rule:nonzero;"/>
        <path d="M2864,1239.06L2864,1775.48C2587.08,1884.74 2277.7,1973.37 2181.95,2000L2001.4,2000L0,1891.13L0,1232.5C85.413,1227.79 185.142,1222.27 299.409,1216.63C302.322,1216.49 305.264,1216.35 308.233,1216.18C331.989,1215.04 356.36,1213.86 381.293,1212.68C384.263,1212.57 387.232,1212.43 390.229,1212.29C909.126,1188.07 1671.1,1164.64 2309.11,1193.68C2312.44,1193.82 2315.77,1193.98 2319.08,1194.13C2346.53,1195.41 2373.73,1196.79 2400.68,1198.27C2404.02,1198.44 2407.32,1198.61 2410.66,1198.81C2575.74,1208.03 2730.74,1221.12 2864,1239.06Z" style="fill:rgb(246,252,254);fill-rule:nonzero;"/>
        <path d="M1468.68,1459.13C1468.68,1459.13 1707.56,1468.16 1728.23,1542.42C1748.89,1616.68 1288.14,1801.54 1073.07,1769.6C581.515,1696.61 1468.68,1459.13 1468.68,1459.13Z" style="fill:rgb(206,218,224);fill-rule:nonzero;"/>
        <path d="M614.814,1558.87L606.774,1561.3C581.114,1476.82 500.211,1414.73 428.86,1359.96C364.653,1310.66 306.917,1266.37 294.535,1213.76C297.448,1213.62 300.39,1213.48 303.359,1213.31C316.049,1262.78 371.853,1305.61 433.958,1353.29C506.346,1408.82 588.37,1471.8 614.814,1558.87Z" style="fill:rgb(209,224,230);fill-rule:nonzero;"/>
        <path d="M695.521,1550.35L687.481,1552.81C661.821,1468.33 580.946,1406.24 509.567,1351.44C447.209,1303.59 390.958,1260.46 376.419,1209.8C379.388,1209.69 382.357,1209.55 385.354,1209.41C400.258,1256.95 454.549,1298.6 514.693,1344.77C587.053,1400.33 669.077,1463.28 695.521,1550.35Z" style="fill:rgb(209,224,230);fill-rule:nonzero;"/>
        <path d="M2286.19,1490.92L2279.86,1485.43C2338.35,1417.87 2356.48,1342.13 2333.65,1260.29C2325.86,1232.37 2314.43,1208.51 2304.23,1190.8C2307.57,1190.94 2310.9,1191.11 2314.2,1191.25C2323.92,1208.82 2334.37,1231.53 2341.74,1258.02C2357.99,1316.29 2361.52,1403.97 2286.19,1490.92Z" style="fill:rgb(209,224,230);fill-rule:nonzero;"/>
        <path d="M2375.22,1490.92L2368.86,1485.43C2427.3,1417.96 2445.42,1342.3 2422.73,1260.57C2415.61,1234.92 2405.36,1212.63 2395.81,1195.4C2399.14,1195.56 2402.45,1195.73 2405.78,1195.93C2414.75,1212.78 2423.99,1233.83 2430.74,1258.02C2446.99,1316.29 2450.55,1403.97 2375.22,1490.92Z" style="fill:rgb(209,224,230);fill-rule:nonzero;"/>
        <path d="M993.856,834.356C992.946,833.93 991.558,833.465 991.558,833.465C987.316,834.675 981.282,836.912 977.244,850.647C973.21,864.385 980.606,872.115 980.606,872.115C980.606,872.115 994.255,879.121 998.477,879.152C998.477,879.152 1006.77,882.009 1013.51,868.296C1025.06,844.788 993.856,834.356 993.856,834.356Z" style="fill:rgb(48,89,122);fill-rule:nonzero;"/>
        <path d="M2437.58,756.315C2437.58,756.315 2462.5,748.749 2465.86,765.611C2469.21,782.475 2502.87,769.996 2499.87,786.814C2496.87,803.633 2477.79,816.781 2464.01,809.664C2450.24,802.548 2422.32,863.944 2405.64,852.234C2388.97,840.524 2437.58,756.315 2437.58,756.315Z" style="fill:rgb(209,232,240);fill-rule:nonzero;"/>
        <path d="M2474.24,611.423C2474.24,611.423 2492.91,641.251 2489.19,656.254C2485.48,671.257 2470.09,671.63 2465.86,681.479C2461.62,691.33 2446.84,684.533 2451.11,676.311C2455.38,668.088 2460.83,630.255 2474.24,611.423Z" style="fill:rgb(209,232,240);fill-rule:nonzero;"/>
        <path d="M804.941,867.988C804.941,867.988 1194.02,610.754 1594.64,744.349C1995.26,877.943 2052.69,947.392 2070.4,990.236C2088.12,1033.08 804.941,867.988 804.941,867.988Z" style="fill:white;fill-rule:nonzero;"/>
        <path d="M2864,1429.84L2864,1999.98L1437.1,1999.98L1229.74,1744.9C1229.74,1744.9 1984.65,1296.53 2864,1429.84Z" style="fill:rgb(230,241,245);fill-rule:nonzero;"/>
        <path d="M1408.66,1855.23C1408.66,1855.23 1737.19,1604.94 2174.77,1757.93C2612.36,1910.93 2864,1910.93 2864,1910.93L2864,1999.98L1405.06,1999.98L1408.66,1855.23Z" style="fill:white;fill-rule:nonzero;"/>
        <path d="M2053.9,2000L0,2000L0,1687.32C99.307,1619.01 288.596,1523.71 616.215,1512.07C1133.46,1493.69 1279.86,1907.56 1644.2,1910.61C1795.56,1911.9 1938.51,1952.71 2053.9,2000Z" style="fill:rgb(209,232,240);fill-rule:nonzero;"/>
        <path d="M2054.98,854.984C2054.93,854.47 2054.91,854.175 2054.91,854.123C2054.92,854.152 2054.93,854.227 2054.95,854.362C2054.96,854.503 2054.98,854.709 2054.98,854.984Z" style="fill:rgb(47,69,99);fill-rule:nonzero;"/>
        <path d="M2189.35,737.485C2189.35,737.485 2187.75,735.086 2183.97,733.682C2183.97,733.682 2184.62,737.283 2189.35,737.485Z" style="fill:rgb(50,54,87);fill-rule:nonzero;"/>
        <path d="M1802,848.737" style="fill:rgb(50,54,87);fill-rule:nonzero;"/>
    </g>
</svg>
