<?xml version="1.0" encoding="UTF-8" standalone="no"?>
<!DOCTYPE svg PUBLIC "-//W3C//DTD SVG 1.1//EN" "http://www.w3.org/Graphics/SVG/1.1/DTD/svg11.dtd">
<svg width="100%" height="100%" viewBox="0 0 636 1041" version="1.1" xmlns="http://www.w3.org/2000/svg" xmlns:xlink="http://www.w3.org/1999/xlink" xml:space="preserve" xmlns:serif="http://www.serif.com/" style="fill-rule:evenodd;clip-rule:evenodd;stroke-linejoin:round;stroke-miterlimit:2;">
    <g id="basCorps">
        <g transform="matrix(1,0,0,1,-1230.53,-542.397)">
            <path d="M1787.5,1315.65C1787.5,1435.85 1690.14,1533.26 1570.05,1533.26C1449.93,1533.26 1352.58,1435.85 1352.58,1315.65C1352.58,1260.6 1373.03,1210.34 1406.71,1172.01C1446.56,1126.68 1504.95,1098.08 1570.05,1098.08C1600.49,1098.08 1629.47,1104.33 1655.77,1115.67C1733.23,1148.93 1787.5,1225.94 1787.5,1315.65Z" style="fill:rgb(230,241,245);fill-rule:nonzero;"/>
        </g>
        <g transform="matrix(1,0,0,1,-1230.53,-542.397)">
            <path d="M1655.77,1115.67C1654.45,1118.05 1601.98,1208.81 1406.71,1172.01C1446.56,1126.68 1504.95,1098.08 1570.05,1098.08C1600.49,1098.08 1629.47,1104.33 1655.77,1115.67Z" style="fill:rgb(206,218,224);fill-rule:nonzero;"/>
        </g>
    </g>
    <g id="bide">
        <g transform="matrix(1,0,0,1,-1230.53,-542.397)">
            <path d="M1719.82,992.796C1719.82,1075.56 1652.77,1142.65 1570.05,1142.65C1487.34,1142.65 1420.29,1075.56 1420.29,992.796C1420.29,962.971 1429.01,935.162 1444.05,911.785C1470.68,870.387 1517.18,842.941 1570.05,842.941C1601.74,842.941 1631.12,852.762 1655.31,869.593C1694.31,896.641 1719.82,941.742 1719.82,992.796Z" style="fill:rgb(230,241,245);fill-rule:nonzero;"/>
        </g>
        <g transform="matrix(1,0,0,1,-1230.53,-542.397)">
            <path d="M1655.31,869.593C1630.13,893.334 1569.36,930.137 1444.05,911.785C1470.68,870.387 1517.18,842.941 1570.05,842.941C1601.74,842.941 1631.12,852.762 1655.31,869.593Z" style="fill:rgb(206,218,224);fill-rule:nonzero;"/>
        </g>
        <g transform="matrix(1,0,0,1,-1230.53,-542.397)">
            <path d="M1526.5,970.477C1526.5,982.863 1516.46,992.905 1504.08,992.905C1491.7,992.905 1481.67,982.863 1481.67,970.477C1481.67,958.089 1491.7,948.047 1504.08,948.047C1516.46,948.047 1526.5,958.089 1526.5,970.477Z" style="fill:rgb(82,87,89);fill-rule:nonzero;"/>
        </g>
        <g transform="matrix(1,0,0,1,-1230.53,-542.397)">
            <path d="M1526.5,1048.63C1526.5,1061.01 1516.46,1071.05 1504.08,1071.05C1491.7,1071.05 1481.67,1061.01 1481.67,1048.63C1481.67,1036.24 1491.7,1026.2 1504.08,1026.2C1516.46,1026.2 1526.5,1036.24 1526.5,1048.63Z" style="fill:rgb(82,87,89);fill-rule:nonzero;"/>
        </g>
    </g>
    <g id="brasGauche">
        <g transform="matrix(1,0,0,1,-1230.53,-542.397)">
            <path d="M1440.65,977.934C1439.07,978.678 1437.17,978.717 1435.49,977.871C1432.3,976.277 1357.13,938.225 1322.11,885.441C1320.3,882.719 1321.05,879.046 1323.76,877.239C1326.54,875.407 1330.16,876.174 1331.96,878.896C1365.23,929.028 1440.03,966.912 1440.78,967.29C1443.7,968.755 1444.88,972.307 1443.42,975.229C1442.8,976.464 1441.81,977.391 1440.65,977.934Z" style="fill:rgb(99,99,99);fill-rule:nonzero;"/>
        </g>
        <g transform="matrix(1,0,0,1,-1230.53,-542.397)">
            <path d="M1406.02,957.594C1405.03,958.059 1403.9,958.255 1402.73,958.103C1399.5,957.674 1397.22,954.702 1397.64,951.461C1397.7,951.059 1402.83,910.93 1392.63,889.547C1391.23,886.597 1392.47,883.068 1395.42,881.66C1395.43,881.655 1395.44,881.65 1395.46,881.646C1398.4,880.263 1401.91,881.515 1403.31,884.454C1415.01,909.014 1409.61,951.229 1409.37,953.011C1409.09,955.088 1407.78,956.767 1406.02,957.594Z" style="fill:rgb(99,99,99);fill-rule:nonzero;"/>
        </g>
        <g transform="matrix(1,0,0,1,-1230.53,-542.397)">
            <path d="M1357.52,919.926C1357.35,920.004 1357.17,920.078 1356.99,920.143C1355.08,920.827 1309.84,936.774 1287.93,918.74C1285.41,916.665 1285.05,912.934 1287.12,910.41C1289.17,907.889 1292.92,907.521 1295.44,909.6C1309.37,921.063 1341.71,913.057 1353,909.002C1356.08,907.899 1359.46,909.498 1360.56,912.574C1361.6,915.473 1360.24,918.644 1357.52,919.926Z" style="fill:rgb(99,99,99);fill-rule:nonzero;"/>
        </g>
    </g>
    <g id="brasDroit">
        <g transform="matrix(-1,0,0,1,1862.92,-533.759)">
            <path d="M1440.65,977.934C1439.07,978.678 1437.17,978.717 1435.49,977.871C1432.3,976.277 1357.13,938.225 1322.11,885.441C1320.3,882.719 1321.05,879.046 1323.76,877.239C1326.54,875.407 1330.16,876.174 1331.96,878.896C1365.23,929.028 1440.03,966.912 1440.78,967.29C1443.7,968.755 1444.88,972.307 1443.42,975.229C1442.8,976.464 1441.81,977.391 1440.65,977.934Z" style="fill:rgb(99,99,99);fill-rule:nonzero;"/>
        </g>
        <g transform="matrix(-1,0,0,1,1862.92,-533.759)">
            <path d="M1406.02,957.594C1405.03,958.059 1403.9,958.255 1402.73,958.103C1399.5,957.674 1397.22,954.702 1397.64,951.461C1397.7,951.059 1402.83,910.93 1392.63,889.547C1391.23,886.597 1392.47,883.068 1395.42,881.66C1395.43,881.655 1395.44,881.65 1395.46,881.646C1398.4,880.263 1401.91,881.515 1403.31,884.454C1415.01,909.014 1409.61,951.229 1409.37,953.011C1409.09,955.088 1407.78,956.767 1406.02,957.594Z" style="fill:rgb(99,99,99);fill-rule:nonzero;"/>
        </g>
        <g transform="matrix(-1,0,0,1,1862.92,-533.759)">
            <path d="M1357.52,919.926C1357.35,920.004 1357.17,920.078 1356.99,920.143C1355.08,920.827 1309.84,936.774 1287.93,918.74C1285.41,916.665 1285.05,912.934 1287.12,910.41C1289.17,907.889 1292.92,907.521 1295.44,909.6C1309.37,921.063 1341.71,913.057 1353,909.002C1356.08,907.899 1359.46,909.498 1360.56,912.574C1361.6,915.473 1360.24,918.644 1357.52,919.926Z" style="fill:rgb(99,99,99);fill-rule:nonzero;"/>
        </g>
    </g>
    <g id="tete">
        <g id="chapeau">
            <g transform="matrix(1,0,0,1,-1230.53,-542.397)">
                <path d="M1656.4,685.35C1650.12,700.295 1640.38,711.107 1642.33,714.217C1645.53,719.342 1565.49,679.067 1565.49,679.067C1565.49,679.067 1569.33,674.239 1574.51,667.428C1579.7,660.616 1586.25,651.854 1591.73,644.018C1596.89,636.545 1601.05,629.898 1602.08,626.592C1605.21,616.309 1653.13,622.128 1660.2,652.813C1662.95,664.749 1660.37,675.893 1656.4,685.35Z" style="fill:rgb(37,54,61);fill-rule:nonzero;"/>
            </g>
            <g transform="matrix(1,0,0,1,-1230.53,-542.397)">
                <path d="M1534.87,705.326C1520.16,690.545 1493.12,661.938 1529.03,642.643C1564.93,623.348 1609.46,685.271 1655.31,685.348C1701.17,685.426 1695.93,756.123 1625.08,746.551C1589.51,741.744 1534.87,705.326 1534.87,705.326Z" style="fill:rgb(46,68,77);fill-rule:nonzero;"/>
            </g>
        </g>
        <g id="bouleTete" transform="matrix(1,0,0,1,-1230.53,-542.397)">
            <path d="M1669.83,785.199C1669.83,840.346 1625.15,885.051 1570.04,885.051C1514.93,885.051 1470.25,840.346 1470.25,785.199C1470.25,730.053 1514.93,685.348 1570.04,685.348C1625.15,685.348 1669.83,730.053 1669.83,785.199Z" style="fill:rgb(230,241,245);fill-rule:nonzero;"/>
        </g>
        <g id="nez" transform="matrix(1,0,0,1,-1230.53,-542.397)">
            <path d="M1521.81,779.583L1416.6,797.374L1526.13,804.809C1526.13,804.809 1530.31,804.846 1528.63,791.275C1526.94,777.704 1521.81,779.583 1521.81,779.583Z" style="fill:rgb(232,115,77);fill-rule:nonzero;"/>
        </g>
        <g id="eyeDroit" transform="matrix(1,0,0,1,-1230.53,-542.397)">
            <path d="M1578,758.384C1578,765.3 1572.4,770.906 1565.49,770.906C1558.57,770.906 1552.97,765.3 1552.97,758.384C1552.97,751.468 1558.57,745.861 1565.49,745.861C1572.4,745.861 1578,751.468 1578,758.384Z" style="fill:rgb(82,87,89);fill-rule:nonzero;"/>
        </g>
        <g id="eyeGauche" transform="matrix(1,0,0,1,-1230.53,-542.397)">
            <path d="M1516.6,758.384C1516.6,765.3 1511,770.906 1504.08,770.906C1497.17,770.906 1491.57,765.3 1491.57,758.384C1491.57,751.468 1497.17,745.861 1504.08,745.861C1511,745.861 1516.6,751.468 1516.6,758.384Z" style="fill:rgb(82,87,89);fill-rule:nonzero;"/>
        </g>
        <g id="bouche1" transform="matrix(1,0,0,1,-1230.53,-542.397)">
            <path d="M1529.04,849.298C1527.34,849.298 1525.72,848.617 1524.53,847.47C1524.24,847.172 1523.94,846.832 1523.73,846.492C1523.51,846.152 1523.3,845.769 1523.13,845.387C1522.96,845.004 1522.87,844.578 1522.79,844.195C1522.7,843.771 1522.66,843.346 1522.66,842.963C1522.66,841.262 1523.34,839.604 1524.53,838.413C1526.02,836.968 1528.23,836.287 1530.27,836.67C1530.69,836.755 1531.08,836.883 1531.46,837.053C1531.84,837.223 1532.22,837.393 1532.56,837.648C1532.9,837.86 1533.24,838.115 1533.54,838.413C1534.73,839.604 1535.41,841.262 1535.41,842.963C1535.41,844.621 1534.73,846.236 1533.54,847.47C1533.24,847.725 1532.9,848.022 1532.56,848.235C1532.22,848.49 1531.84,848.66 1531.46,848.83C1531.08,849 1530.69,849.128 1530.27,849.17C1529.84,849.256 1529.46,849.298 1529.04,849.298Z" style="fill:rgb(82,87,89);fill-rule:nonzero;"/>
        </g>
        <g id="bouche" transform="matrix(1,0,0,1,-1230.53,-542.397)">
            <path d="M1594.31,823.787C1592.18,822.682 1590.95,820.513 1590.95,818.217C1590.91,817.196 1591.16,816.176 1591.67,815.197C1593.33,812.052 1597.2,810.903 1600.3,812.52C1602.42,813.667 1603.66,815.836 1603.7,818.089C1603.7,819.152 1603.44,820.172 1602.93,821.15C1601.79,823.318 1599.58,824.552 1597.32,824.552C1596.3,824.552 1595.28,824.297 1594.31,823.787ZM1580.24,837.563C1579.26,836.372 1578.75,834.927 1578.75,833.523C1578.75,831.652 1579.52,829.824 1581.05,828.549C1583.73,826.295 1587.76,826.678 1590.01,829.356C1591.03,830.547 1591.5,831.992 1591.5,833.396C1591.5,835.267 1590.74,837.096 1589.25,838.37L1589.21,838.37C1588.02,839.348 1586.57,839.858 1585.13,839.858C1583.3,839.858 1581.52,839.051 1580.24,837.563ZM1561.8,844.536C1561.63,843.94 1561.54,843.303 1561.54,842.665C1561.54,839.943 1563.29,837.436 1566.05,836.585C1569.41,835.564 1572.97,837.436 1574,840.795C1574.21,841.432 1574.29,842.069 1574.29,842.707C1574.29,845.429 1572.51,847.938 1569.79,848.788C1569.15,848.957 1568.51,849.043 1567.92,849.043C1565.2,849.043 1562.65,847.299 1561.8,844.536ZM1542.13,845.387C1542.13,841.857 1544.97,839.008 1548.5,839.008C1552.03,839.008 1554.87,841.857 1554.87,845.387C1554.87,848.915 1552.03,851.764 1548.5,851.764C1544.97,851.764 1542.13,848.915 1542.13,845.387Z" style="fill:rgb(82,87,89);fill-rule:nonzero;"/>
        </g>
        <g id="bouche2" transform="matrix(1,0,0,1,-1230.53,-542.397)">
            <path d="M1597.32,824.51C1595.67,824.51 1594.01,823.829 1592.82,822.639C1591.63,821.448 1590.95,819.79 1590.95,818.131C1590.95,816.431 1591.63,814.772 1592.82,813.625C1594.31,812.137 1596.52,811.456 1598.6,811.881C1598.98,811.924 1599.41,812.052 1599.79,812.221C1600.17,812.392 1600.51,812.604 1600.89,812.816C1601.23,813.029 1601.57,813.326 1601.83,813.625C1603.02,814.772 1603.7,816.431 1603.7,818.131C1603.7,819.79 1603.02,821.448 1601.83,822.639C1601.57,822.936 1601.23,823.191 1600.89,823.404C1600.51,823.659 1600.17,823.829 1599.79,823.999C1599.41,824.169 1598.98,824.297 1598.6,824.382C1598.17,824.467 1597.75,824.51 1597.32,824.51Z" style="fill:rgb(82,87,89);fill-rule:nonzero;"/>
        </g>
    </g>
</svg>
