<?xml version="1.0" encoding="UTF-8" standalone="no"?>
<!DOCTYPE svg PUBLIC "-//W3C//DTD SVG 1.1//EN" "http://www.w3.org/Graphics/SVG/1.1/DTD/svg11.dtd">
<svg width="100%" height="100%" viewBox="0 0 230 230" version="1.1" xmlns="http://www.w3.org/2000/svg" xmlns:xlink="http://www.w3.org/1999/xlink" xml:space="preserve" xmlns:serif="http://www.serif.com/" style="fill-rule:evenodd;clip-rule:evenodd;stroke-linejoin:round;stroke-miterlimit:2;">
    <g transform="matrix(4.16667,0,0,4.16667,-3668.62,-163.877)">
        <path d="M911.957,69.05C911.686,69.288 911.415,69.524 911.159,69.78C910.823,70.117 910.504,70.467 910.2,70.829C909.889,71.198 909.595,71.581 909.32,71.975C908.76,72.773 908.274,73.619 907.866,74.503C907.554,73.91 907.198,73.337 906.82,72.776C906.444,72.218 906.044,71.674 905.609,71.159C905.278,70.767 904.934,70.386 904.573,70.024C904.345,69.796 904.104,69.582 903.865,69.368C903.396,68.947 902.91,68.548 902.402,68.181C901.726,67.691 901.02,67.246 900.285,66.857C901.024,66.523 901.729,66.121 902.41,65.681C902.939,65.339 903.455,64.975 903.944,64.572C904.347,64.239 904.738,63.89 905.11,63.517C905.33,63.297 905.532,63.063 905.739,62.832C906.121,62.404 906.486,61.962 906.82,61.498C907.391,60.706 907.894,59.868 908.314,58.989C908.616,59.55 908.958,60.089 909.32,60.616C909.762,61.261 910.244,61.879 910.769,62.463C910.984,62.703 911.198,62.943 911.427,63.17C911.788,63.533 912.169,63.876 912.56,64.208C913.192,64.743 913.86,65.235 914.552,65.681C914.993,65.965 915.442,66.235 915.901,66.478C914.89,66.942 913.937,67.52 913.04,68.181C912.668,68.455 912.306,68.744 911.957,69.05ZM920.786,65.681L919.811,65.395C917.881,64.829 915.983,63.791 914.337,62.432L919.302,57.465L917.535,55.698L912.552,60.68C911.136,59.074 910.043,57.205 909.41,55.191L909.32,54.903L909.32,39.764L906.82,39.764L906.82,55.918C906.252,57.816 905.286,59.574 903.977,61.07L898.604,55.698L896.837,57.465L902.162,62.791C900.487,64.125 898.531,65.06 896.42,65.508L895.607,65.681L885.323,65.681L885.323,68.181L897.088,68.181C898.92,68.828 900.628,69.832 902.101,71.131L896.837,76.396L898.604,78.164L903.832,72.936C905.182,74.577 906.211,76.48 906.773,78.427L906.82,78.59L906.82,94.097L909.32,94.097L909.32,77.867C909.82,75.938 910.726,74.15 911.98,72.609L917.535,78.164L919.302,76.396L913.722,70.816C915.103,69.634 916.699,68.744 918.423,68.181L930.816,68.181L930.816,65.681L920.786,65.681Z" style="fill:rgb(152,198,203);fill-rule:nonzero;"/>
    </g>
    <g transform="matrix(4.16667,0,0,4.16667,-3668.62,-163.877)">
        <path d="M896.424,53.635L893.679,50.891L891.912,52.658L894.656,55.402L896.424,53.635Z" style="fill:rgb(152,198,203);fill-rule:nonzero;"/>
    </g>
    <g transform="matrix(4.16667,0,0,4.16667,-3668.62,-163.877)">
        <path d="M924.228,52.658L922.46,50.891L919.716,53.635L921.483,55.402L924.228,52.658Z" style="fill:rgb(152,198,203);fill-rule:nonzero;"/>
    </g>
    <g transform="matrix(4.16667,0,0,4.16667,-3668.62,-163.877)">
        <path d="M891.912,81.203L893.679,82.971L896.424,80.227L894.656,78.459L891.912,81.203Z" style="fill:rgb(152,198,203);fill-rule:nonzero;"/>
    </g>
    <g transform="matrix(4.16667,0,0,4.16667,-3668.62,-163.877)">
        <path d="M919.716,80.227L922.46,82.971L924.228,81.203L921.483,78.459L919.716,80.227Z" style="fill:rgb(152,198,203);fill-rule:nonzero;"/>
    </g>
</svg>
