<?xml version="1.0" encoding="UTF-8" standalone="no"?>
<!DOCTYPE svg PUBLIC "-//W3C//DTD SVG 1.1//EN" "http://www.w3.org/Graphics/SVG/1.1/DTD/svg11.dtd">
<svg width="100%" height="100%" viewBox="0 0 200 200" version="1.1" xmlns="http://www.w3.org/2000/svg" xmlns:xlink="http://www.w3.org/1999/xlink" xml:space="preserve" xmlns:serif="http://www.serif.com/" style="fill-rule:evenodd;clip-rule:evenodd;stroke-linejoin:round;stroke-miterlimit:2;">
    <g transform="matrix(4.16667,0,0,4.16667,-4673.15,-1952.79)">
        <path d="M1148.85,491.304L1155.27,484.89L1153.34,482.958L1146.92,489.371L1146.92,469.71L1144.19,469.71L1144.19,489.371L1137.78,482.958L1135.84,484.89L1142.26,491.304L1126.33,491.304L1126.33,494.037L1142.26,494.037L1135.84,500.451L1137.78,502.383L1144.19,495.97L1144.19,515.63L1146.92,515.63L1146.92,495.97L1153.34,502.383L1155.27,500.451L1148.85,494.037L1164.78,494.037L1164.78,491.304L1148.85,491.304Z" style="fill:rgb(152,198,203);fill-rule:nonzero;"/>
    </g>
    <g transform="matrix(4.16667,0,0,4.16667,-4673.15,-1952.79)">
        <path d="M1135.93,481.214L1133.61,478.895L1131.68,480.827L1134,483.146L1135.93,481.214Z" style="fill:rgb(152,198,203);fill-rule:nonzero;"/>
    </g>
    <g transform="matrix(4.16667,0,0,4.16667,-4673.15,-1952.79)">
        <path d="M1159.43,480.827L1157.5,478.895L1155.18,481.214L1157.11,483.146L1159.43,480.827Z" style="fill:rgb(152,198,203);fill-rule:nonzero;"/>
    </g>
    <g transform="matrix(4.16667,0,0,4.16667,-4673.15,-1952.79)">
        <path d="M1131.68,504.513L1133.61,506.446L1135.93,504.126L1134,502.194L1131.68,504.513Z" style="fill:rgb(152,198,203);fill-rule:nonzero;"/>
    </g>
    <g transform="matrix(4.16667,0,0,4.16667,-4673.15,-1952.79)">
        <path d="M1155.18,504.126L1157.5,506.446L1159.43,504.513L1157.11,502.194L1155.18,504.126Z" style="fill:rgb(152,198,203);fill-rule:nonzero;"/>
    </g>
</svg>
